<svg xmlns="http://www.w3.org/2000/svg" width="16" height="16" fill="#F59F00" viewBox="0 0 16 16"><path d="M4 2.5a.5.5.0 01.5-.5h1a.5.5.0 01.5.5v1a.5.5.0 01-.5.5h-1A.5.5.0 014 3.5v-1zm3 0a.5.5.0 01.5-.5h1a.5.5.0 01.5.5v1a.5.5.0 01-.5.5h-1A.5.5.0 017 3.5v-1zm3.5-.5a.5.5.0 00-.5.5v1a.5.5.0 00.5.5h1a.5.5.0 00.5-.5v-1a.5.5.0 00-.5-.5h-1zM4 5.5a.5.5.0 01.5-.5h1a.5.5.0 01.5.5v1a.5.5.0 01-.5.5h-1A.5.5.0 014 6.5v-1zM7.5 5a.5.5.0 00-.5.5v1a.5.5.0 00.5.5h1a.5.5.0 00.5-.5v-1A.5.5.0 008.5 5h-1zm2.5.5a.5.5.0 01.5-.5h1a.5.5.0 01.5.5v1a.5.5.0 01-.5.5h-1a.5.5.0 01-.5-.5v-1zM4.5 8a.5.5.0 00-.5.5v1a.5.5.0 00.5.5h1a.5.5.0 00.5-.5v-1A.5.5.0 005.5 8h-1zm2.5.5a.5.5.0 01.5-.5h1a.5.5.0 01.5.5v1a.5.5.0 01-.5.5h-1A.5.5.0 017 9.5v-1zm3.5-.5a.5.5.0 00-.5.5v1a.5.5.0 00.5.5h1a.5.5.0 00.5-.5v-1a.5.5.0 00-.5-.5h-1z"/><path d="M2 1a1 1 0 011-1h10a1 1 0 011 1v14a1 1 0 01-1 1H3a1 1 0 01-1-1V1zm11 0H3v14h3v-2.5a.5.5.0 01.5-.5h3a.5.5.0 01.5.5V15h3V1z"/></svg>