<svg xmlns="http://www.w3.org/2000/svg" width="16" height="16" fill="#F59F00" viewBox="0 0 16 16"><path d="M4 0A2 2 0 002 2v1.133l-.941.502A2 2 0 000 5.4V14a2 2 0 002 2h12a2 2 0 002-2V5.4a2 2 0 00-1.059-1.765L14 3.133V2a2 2 0 00-2-2H4zm10 4.267.47.25A1 1 0 0115 5.4v.817l-1 .6v-2.55zm-1 3.15-3.75 2.25L8 8.917l-1.25.75L3 7.417V2a1 1 0 011-1h8a1 1 0 011 1v5.417zm-11-.6-1-.6V5.4a1 1 0 01.53-.882L2 4.267v2.55zm13 .566v5.734l-4.778-2.867L15 7.383zm-.035 6.88A1 1 0 0114 15H2a1 1 0 01-.965-.738L8 10.083l6.965 4.18zM1 13.116V7.383l4.778 2.867L1 13.117z"/><path d="m9.8300003 6.6764975c1.0099997.0 1.5869997-.857 1.5869997-2.025v-.21c0-1.604-1.194-3.034-3.3139998-3.034h-.035c-2.065.0-3.485 1.36-3.485 3.432v.214c0 2.174 1.438 3.354 3.358 3.354h.044c.5940001.0 1.0180001-.074 1.2370001-.175v-.73c-.245.11-.673.18-1.18.18h-.044c-1.334.0-2.571-.788-2.571-2.655v-.157c0-1.657 1.058-2.724 2.64-2.724h.04c1.535.0 2.4839997 1.05 2.4839997 2.326v.118c0 .975-.324 1.39-.6389997 1.39-.232.0-.41-.148-.41-.42v-2.19h-.906v.569h-.03c-.084-.298-.368-.63-.954-.63-.778.0-1.259.555-1.259 1.4v.528c0 .892.49 1.434 1.26 1.434.471.0.896-.227 1.014-.643h.043c.118.42.617.648 1.12.648zm-2.4530001-1.588v-.227c0-.546.2270001-.791.5730001-.791.297.0.572.192.572.708v.367c0 .573-.253.744-.5640001.744-.354.0-.581-.215-.581-.8z"/></svg>