<svg xmlns="http://www.w3.org/2000/svg" width="16" height="16" fill="#F59F00" viewBox="0 0 16 16"><path d="m10 1c.552285.0 1 .4477153 1 1v12c0 .552285-.447715 1-1 1H6C5.4477153 15 5 14.552285 5 14V2c0-.5522847.4477153-1 1-1zM6 0C4.8954305.0 4 .8954305 4 2v12c0 1.104569.8954305 2 2 2h4c1.104569.0 2-.895431 2-2V2c0-1.1045695-.895431-2-2-2z"/><path d="m8 14c1.3333328.0 1.3333328-2 0-2-1.3333328.0-1.3333328 2 0 2zM1.599 4.058c.2441651.1291889.3373061.4318969.208.676C1.2752447 5.7403987.9981671 6.8617563 1 8c0 1.18.292 2.292.807 3.266.3119999.589333-.5720001 1.057333-.884.468C.31502364 10.583383-.00187583 9.3013651.0 8 0 6.653.334 5.381.923 4.266c.1291889-.2441651.4318969-.3373061.676-.208zm12.802.0C14.645103 3.9286939 14.947811 4.0218349 15.077 4.266 15.685015 5.4166023 16.001916 6.69863 16 8c.0019 1.30137-.314985 2.583398-.923 3.734-.312.589333-1.196.121333-.884-.468.531755-1.006399.808833-2.1277563.807-3.266.0-1.18-.292-2.292-.807-3.266C14.063694 4.4898969 14.156835 4.1871889 14.401 4.058zM3.057 5.534C3.3144807 5.634395 3.4416833 5.9246319 3.341 6.182 3.1149376 6.7614272 2.9992811 7.3780357 3 8c0 .642.12 1.255.34 1.818C3.6287219 10.457439 2.6320429 10.847537 2.41 10.182 2.1384663 9.4865963 1.9994083 8.7465363 2 8c0-.769.145-1.505.41-2.182.1003981-.2569366.3899161-.3840203.647-.284zm9.886.0c.257368-.1006833.547605.026519.648.284C13.855 6.495 14 7.231 14 8s-.145 1.505-.41 2.182C13.329314 10.759347 12.459518 10.418911 12.66 9.818 12.88 9.255 13 8.642 13 8 13 7.358 12.88 6.745 12.66 6.182 12.55921 5.9249115 12.685913 5.6347935 12.943 5.534z"/></svg>