<svg xmlns="http://www.w3.org/2000/svg" aria-label="Web" role="img" viewBox="0 0 512 512"><path fill="#F59F00" d="m236.4 17.23c31.604-2.731 63.598 1.171 93.641 10.925 56.575 17.948 105.74 58.136 134.61 110.03 23.02 40.188 33.555 87.399 30.433 133.44-2.341 38.627-14.436 76.474-34.725 109.25-19.119 31.214-45.65 58.136-76.474 77.645-30.433 19.118-64.769 31.604-100.66 35.505-46.04 5.463-94.032-3.121-135.39-24.19-30.043-15.217-56.965-37.067-78.424-63.208-23.021-28.093-39.018-61.648-47.211-97.153-10.145-45.26-7.023-93.642 9.364-137.34 16.777-44.48 46.821-83.887 85.838-111.2 35.116-24.972 76.474-40.188 119-43.7m-39.017 35.896c-18.338 15.997-32.384 36.286-43.309 58.136h95.202v-81.546c-19.118 1.17-37.066 10.925-51.893 23.41m67.11-23.41v81.156h93.251c-10.534-21.85-24.58-42.139-43.309-58.136-13.656-11.705-31.214-21.069-49.942-23.02m-88.569 14.046c-27.312 10.535-53.063 26.141-74.133 46.43-7.0231 6.2427-13.266 13.656-19.509 20.679h58.136c12.876-28.483 31.214-55.795 57.356-74.523-7.413 2.731-14.827 4.682-21.85 7.413m138.51-7.413c9.364 6.633 17.948 14.436 25.362 23.02 13.265 15.217 23.8 32.774 32.384 51.112h58.136c-3.122-3.902-7.023-7.413-10.145-11.315-4.292-5.0723-9.364-8.974-14.436-13.656-25.752-23.02-57.746-39.407-91.301-49.161m-243.86 89.739c-14.436 20.679-25.361 43.699-32.384 67.89h77.254c3.902-23.02 9.754-46.04 18.338-67.89zm75.694 3.121c-8.194 20.679-14.436 42.529-17.948 64.769h121.34v-67.89h-100.66c-1.951-.39-2.341 1.561-2.731 3.122m118.22-3.122v67.89h119.39c-3.512-23.02-10.535-45.65-19.118-67.5-33.165-.78-66.72-.39-100.27-.39m114.32.0c8.584 21.85 14.436 44.48 18.338 67.89h77.254c-7.023-24.191-17.948-47.211-32.384-67.89zm-345.3 172.07h79.205c-3.122-29.654-3.122-60.087.39-89.74h-78.815c-5.852 29.653-6.243 60.087-.78 89.74m92.081.0h124.08v-89.74h-123.68c-3.512 30.043-3.512 60.087-.39 89.74m138.9-89.35v89.74h122.12c3.122-29.653 3.122-59.697-.78-89.74zm134.61.0c3.511 29.653 3.902 59.696.39 89.74h79.205c5.462-29.653 5.072-60.087-.78-89.74zm-362.47 104.57c6.633 23.801 16.778 47.211 30.434 67.89h64.378c-8.194-21.849-13.656-44.479-17.168-67.89-25.752.0-51.503-.39-77.645.0m90.91.0c3.121 23.021 9.364 45.651 17.948 67.5 34.725.39 69.451.0 104.18.0v-67.89c-40.578.39-81.546.39-122.12.39m136.95.0v67.89c33.945.0 68.28.391 102.22.0 8.194-21.849 14.437-44.479 17.948-67.499-39.797-.391-79.985-.391-120.17-.391m116.27 67.5h64.378c13.656-20.679 24.191-43.699 30.434-67.89h-77.645c-3.511 23.411-8.974 46.041-17.167 67.89m-302.78 14.827c14.827 18.728 32.385 35.506 52.284 48.381 20.679 14.047 43.699 23.801 67.5 30.824-5.463-3.512-10.535-8.194-15.217-12.486-19.509-18.728-33.945-42.138-44.87-66.719zm74.133.0c12.486 26.922 30.043 52.283 54.624 69.841 12.876 8.584 27.702 15.607 43.309 16.387v-86.228zm112.37.0v86.228c6.633-.39 13.656-2.341 19.899-4.682 15.217-5.853 28.873-15.607 40.188-27.702 15.217-15.607 26.532-34.335 35.896-53.844zm110.03.39c-7.804 18.338-17.948 35.506-30.434 51.113-8.583 10.534-18.338 20.289-29.653 28.092 5.853-1.951 12.096-3.902 17.948-5.852 20.679-7.414 40.188-17.948 57.746-30.824 16.387-12.486 31.214-26.532 44.089-42.919-19.898.0-39.797.0-59.696.39z"/></svg>