<svg xmlns="http://www.w3.org/2000/svg" width="16" height="16" fill="#F59F00" viewBox="0 0 16 16">
  <path d="M4 0a2 2 0 0 0-2 2v1.133l-.941.502A2 2 0 0 0 0 5.4V14a2 2 0 0 0 2 2h12a2 2 0 0 0 2-2V5.4a2 2 0 0 0-1.059-1.765L14 3.133V2a2 2 0 0 0-2-2H4Zm10 4.267.47.25A1 1 0 0 1 15 5.4v.817l-1 .6v-2.55Zm-1 3.15-3.75 2.25L8 8.917l-1.25.75L3 7.417V2a1 1 0 0 1 1-1h8a1 1 0 0 1 1 1v5.417Zm-11-.6-1-.6V5.4a1 1 0 0 1 .53-.882L2 4.267v2.55Zm13 .566v5.734l-4.778-2.867L15 7.383Zm-.035 6.88A1 1 0 0 1 14 15H2a1 1 0 0 1-.965-.738L8 10.083l6.965 4.18ZM1 13.116V7.383l4.778 2.867L1 13.117Z" />
  <path d="m 9.8300003,6.6764975 c 1.0099997,0 1.5869997,-0.857 1.5869997,-2.025 v -0.21 c 0,-1.604 -1.194,-3.034 -3.3139998,-3.034 h -0.035 c -2.065,0 -3.485,1.36 -3.485,3.432 v 0.214 c 0,2.174 1.438,3.354 3.358,3.354 h 0.044 c 0.5940001,0 1.0180001,-0.074 1.2370001,-0.175 v -0.73 c -0.245,0.11 -0.673,0.18 -1.18,0.18 h -0.044 c -1.334,0 -2.571,-0.788 -2.571,-2.655 v -0.157 c 0,-1.657 1.058,-2.724 2.64,-2.724 h 0.04 c 1.535,0 2.4839997,1.05 2.4839997,2.326 v 0.118 c 0,0.975 -0.324,1.39 -0.6389997,1.39 -0.232,0 -0.41,-0.148 -0.41,-0.42 v -2.19 h -0.906 v 0.569 h -0.03 c -0.084,-0.298 -0.368,-0.63 -0.954,-0.63 -0.778,0 -1.259,0.555 -1.259,1.4 v 0.528 c 0,0.892 0.49,1.434 1.26,1.434 0.471,0 0.896,-0.227 1.014,-0.643 h 0.043 c 0.118,0.42 0.617,0.648 1.12,0.648 z m -2.4530001,-1.588 v -0.227 c 0,-0.546 0.2270001,-0.791 0.5730001,-0.791 0.297,0 0.572,0.192 0.572,0.708 v 0.367 c 0,0.573 -0.253,0.744 -0.5640001,0.744 -0.354,0 -0.581,-0.215 -0.581,-0.8 z" />
</svg>
