<svg 
    xmlns="http://www.w3.org/2000/svg" 
    aria-label="APC" 
    role="img"
    viewBox="0 0 561.3 561.3"
>
  <g fill="#ed1c24">
    <path d="M100.1 353.5l-19.8-35.6H152l-36-76.3-52.9 111.9H0l82.7-150.9h66.5l82.1 150.9"/>
    <path d="M231.7 265.8h78.6c19.9 0 27.8-1.2 27.8-15.2 0-13.5-6.4-15-26.9-15h-80l-17.6-33.1h111.1c52.6 0 72 23 72 47.3 0 23.6-18 49.5-75.6 49.5h-26.3v54h-63.5v-87.5"/>
    <path d="M561.3 342.1c-18.9 8.9-42.4 13.2-67.4 13.2-75.7 0-101.7-42.2-101.7-77 .1-44 38.5-77.8 104.7-77.8a177 177 0 0162.9 10.4v43.6c-18.3-9.7-34.2-14-52.8-14-31.8 0-57.7 14.3-57.7 37.2 0 22.6 26.6 37.3 58.3 37.3 18.3 0 33.3-3.7 53.7-13.2"/>
  </g>
</svg>