<svg 
    xmlns="http://www.w3.org/2000/svg"
    aria-label="MS Access" 
    role="img"
    viewBox="0 0 190.8 190.8"
>
    <path
        fill="#64d8c7"
        d="M20.1 51.1c-2 .5-3.5 2.7-3.1 4.6.3 2 .5 2.2 19 13.2l99.5 60c25.8 15.6 33.2 19.9 34.1 20 2.3.3 4.4-1.6 4.4-4.1 0-1.6-.7-2.7-2.4-3.8a13884.7 13884.7 0 00-88.7-53.5L32.5 57.2c-5.5-3.3-10.3-6-10.7-6.1H20zm-.8 16.4a4 4 0 00-2.3 3.8c0 2.3.4 2.5 9.3 7.9 70.3 42.4 128.8 77.6 129.7 78 1.7.7 4-.2 5-2 .3-.6.4-1.2.3-2.3-.1-1.3-.3-1.7-1-2.4-.6-.5-14.5-9-31-19A99773.3 99773.3 0 0122.6 67.5c-1.2-.5-2-.5-3.3.1zm0 16.1a4 4 0 00-1 6.6 58855.5 58855.5 0 0186.4 52.3c21.1 12.8 38.8 23.3 39.3 23.4 1 .3 2.5 0 3.5-.6s1.7-2.6 1.6-3.9c-.3-2.2 7 2.4-84.5-52.7L39.4 93.5c-18.2-11-18-10.9-20-9.9zm-.2 16.3c-1 .4-2.2 1.8-2.4 2.7a5 5 0 00.6 3.5 3878 3878 0 00113.8 68.5c3 .4 5.3-2.3 4.6-5.1-.2-.6-.6-1.4-1-1.7a8876.5 8876.5 0 00-105-63.6c-8-4.8-8.8-5.1-10.6-4.3zm.2 15.9c-.4.2-1.1.8-1.5 1.3-1 1.3-1 3.3-.2 4.7.6 1 .7 1 78.2 47.6 19.8 12 21.7 13 22.8 13a4 4 0 002.7-7 94208.4 94208.4 0 01-86-52c-13.7-8.4-14-8.5-16-7.6zm-.8 16.2c-1.4.7-2 1.8-2 3.7 0 1.2.1 1.8.5 2.3.5.7 10.8 7 74.7 45.4 11.9 7.2 12.3 7.4 13.7 7.4 3.7 0 5.5-4.6 2.7-7-.3-.3-19.9-12.1-43.4-26.3-39.2-23.7-41.2-26.3-42.4-26.4-1 0-3.2.6-3.8.9z"
    />
    <path
        fill="#e070a4"
        d="M18.9 139.2c-2-.5-3.6-2.7-3.2-4.6.4-2 .6-2.2 19-13.2l99.5-60c25.9-15.6 33.3-19.9 34.1-20 2.4-.3 4.5 1.6 4.5 4.1 0 1.6-.8 2.7-2.5 3.8a13882 13882 0 01-88.7 53.5L31.2 133c-5.4 3.3-10.3 6-10.7 6.1-.4.1-1.2 0-1.6 0zm-.8-16.4a4 4 0 01-2.3-3.8c0-2.3.3-2.5 9.2-7.9l129.7-78c1.7-.7 4 .2 5 2 .3.6.4 1.2.3 2.3-.1 1.3-.2 1.7-1 2.4-.5.5-14.4 9-31 19a99802.3 99802.3 0 00-106.7 64.1c-1.2.5-1.9.5-3.2-.1zm0-16.1A4 4 0 0117 100a58857.5 58857.5 0 0086.4-52.3c21.2-12.8 38.9-23.3 39.4-23.4 1-.3 2.4 0 3.4.6s1.8 2.6 1.6 3.9c-.3 2.2 7-2.4-84.4 52.7L38 96.8c-18.2 11-18 10.8-20 9.9zm-.3-16.3c-1-.4-2.1-1.8-2.4-2.7a5 5 0 01.7-3.5 3878 3878 0 01113.8-68.5c3-.4 5.3 2.3 4.5 5.1-.1.6-.6 1.4-1 1.7a8876.5 8876.5 0 01-105 63.6c-8 4.8-8.7 5.1-10.6 4.3zm.3-15.9c-.5-.2-1.2-.8-1.6-1.3-1-1.3-1-3.3-.2-4.7.6-1 .8-1 78.2-47.6 19.8-12 21.7-13 22.8-13a4 4 0 012.8 7 94255.3 94255.3 0 00-86 52c-13.8 8.4-14 8.5-16 7.6zm.7-15.7c-1.4-.7-2-1.8-2-3.6 0-1.2.1-1.8.5-2.4.5-.7 10.8-7 74.7-45.4C104 .2 104.4 0 105.7 0c3.7 0 5.5 4.6 2.7 7A4423.4 4423.4 0 0121 59.2a4 4 0 01-2.2-.4z"
    />
</svg>
