<svg 
    xmlns="http://www.w3.org/2000/svg"
    aria-label=".EF Core" 
    role="img"
    viewBox="0 0 12.732276 12.732276"
>
    <rect
        fill="#68217a"
        width="100%"
        height="100%"
        x="0"
        y="0"
    />
    <circle
        fill="#40ccf4"
        cx="4.6886563"
        cy="9.051445"
        r="0.9343099"
    />
    <g fill="#ffffff">
        <path d="m 5.30455,11.828748 c 0.47724,-0.09754 0.93117,-0.326252 1.30053,-0.655266 l 0.10438,-0.09298 -0.10963,-0.110912 -0.10962,-0.110911 -0.0561,0.04553 c -0.0309,0.02504 -0.11724,0.09562 -0.19191,0.156849 -0.18808,0.154193 -0.59643,0.352359 -0.87803,0.426089 -0.19748,0.05171 -0.28194,0.06087 -0.56828,0.06165 -0.37899,10e-4 -0.54261,-0.0274 -0.87421,-0.151956 C 3.20802,11.128781 2.66303,10.520528 2.46065,9.766232 2.40455,9.557165 2.39845,9.494512 2.39725,9.117307 2.39625,8.759787 2.40325,8.670545 2.44745,8.496268 2.64283,7.723932 3.20193,7.099695 3.93935,6.830569 4.2513,6.716722 4.42592,6.687212 4.78428,6.687775 c 0.27105,4.27e-4 0.36144,0.01013 0.5468,0.05868 0.41548,0.108836 0.75651,0.286073 1.03882,0.539894 L 6.49023,7.39454 6.58823,7.28317 C 6.64213,7.22192 6.68623,7.165327 6.68623,7.157415 6.68623,7.126775 6.4233,6.911673 6.239,6.79154 5.60895,6.380855 4.79894,6.254344 4.05667,6.450696 3.04714,6.717749 2.29805,7.532221 2.08999,8.589035 c -0.0542,0.275116 -0.0532,0.829014 0.002,1.084959 0.0822,0.381577 0.22756,0.730588 0.43132,1.035302 0.14665,0.219321 0.55784,0.612355 0.79223,0.757256 0.58934,0.364336 1.32399,0.498109 1.98904,0.362186 z m 4.59704,-1.382182 c 0.0845,-0.03143 0.20188,-0.08547 0.26095,-0.120094 l 0.1074,-0.06294 v -0.161389 c 0,-0.08876 -0.006,-0.16139 -0.0129,-0.16139 -0.007,0 -0.0827,0.04213 -0.16808,0.09361 -0.39895,0.24062 -0.8661,0.25896 -1.16068,0.04557 C 8.74611,9.947972 8.61547,9.686264 8.58544,9.393162 L 8.57024,9.244889 h 0.934 0.93401 L 10.42145,9.008013 C 10.38885,8.548784 10.28638,8.285776 10.05726,8.073649 9.89387,7.922383 9.72703,7.855123 9.47067,7.83717 8.99518,7.80387 8.57688,8.060289 8.36614,8.514237 8.25508,8.753468 8.22871,8.886464 8.22871,9.207528 c 0,0.653879 0.27123,1.108186 0.75747,1.268757 0.20305,0.06706 0.69859,0.05097 0.91537,-0.02972 z M 8.60237,8.850974 C 8.67357,8.53429 8.83939,8.30487 9.07538,8.196717 c 0.0918,-0.04205 0.15716,-0.0532 0.31314,-0.05338 0.17536,-2.09e-4 0.21088,0.0074 0.32121,0.06848 0.0764,0.04234 0.15123,0.108221 0.19488,0.171664 0.0832,0.120913 0.15657,0.340794 0.15657,0.469149 V 8.94334 H 9.3214 8.58161 Z M 7.0287,9.679803 C 7.0392,8.826335 7.0459,8.772784 7.17247,8.513993 7.43589,8.208307 7.6737,8.102894 7.97362,8.248685 L 7.96462,7.866997 C 7.91872,7.861897 7.85645,7.853777 7.70587,7.853487 7.43395,7.852961 7.22698,7.990905 7.07989,8.270687 L 7.02499,8.375066 7.02399,8.137314 7.02299,7.899561 H 6.84902 6.67506 v 1.287341 1.287341 h 0.17211 0.1721 z"/>
        <path d="M 3.19093,1.060334 H 6.21828 V 1.605513 H 3.83874 V 3.022984 H 6.1189 V 3.568162 H 3.83874 v 1.73496 H 6.276 V 5.8483 H 3.19093 Z"/>
        <path d="m 7.35054,1.060334 h 2.76497 v 0.547841 h -2.114 v 1.417953 h 1.9078 V 3.573969 H 8.00151 V 5.871687 H 7.35054 Z"/>
    </g>
</svg>
