<svg
    xmlns="http://www.w3.org/2000/svg"
    aria-label="Git"
    role="img"
    viewBox="0 0 384.23788 384.138"
>
    <path
        fill="#f05133"
        d="m 376.91894,174.96899 -167.8,-167.6999969 a 24.7,24.7 0 0 0 -35,0 l -34.8,34.8999999 44.2,44.1 a 29.4,29.4 0 0 1 37.2,37.499997 l 42.5,42.5 a 29.4,29.4 0 1 1 -17.6,16.6 l -39.7,-39.7 v 104.5 a 29.4,29.4 0 1 1 -24.2,-0.9 v -105.4 a 29.4,29.4 0 0 1 -16,-38.6 l -43.5,-43.499997 L 7.2189388,174.26899 a 24.7,24.7 0 0 0 0,34.9 l 167.9000012,167.7 a 24.7,24.7 0 0 0 35,0 l 166.9,-167 a 24.7,24.7 0 0 0 0,-34.9"
    />
</svg>
