<svg
    xmlns="http://www.w3.org/2000/svg"
    aria-label="Hugo"
    role="img"
    viewBox="0 0 386.96 386.96"
>
    <path
        fill="#ff4088"
        stroke="#c9177e"
        stroke-width="27"
        d="m216 20.401 114.41 66.54a44 44 0 0 1 21.88 38.04v136.43a48 48 0 0 1-24.45 41.82l-113.55 63.94a49 49 0 0 1-48.48-0.23l-104.57-60.19a53 53 0 0 1-26.56-45.93v-129.47a55 55 0 0 1 26.1-46.8l102.8-63.46a51 51 0 0 1 52.42-0.69z"
    />
    <path
        fill="#fff"
        d="m114.11 296.19v-207.22h43.35v75.48h71.92v-75.48h43.48v207.22h-43.48v-90.61h-71.92v90.61z"
    />
</svg>
