<svg
    xmlns="http://www.w3.org/2000/svg"
    aria-label="Juniper"
    role="img"
    viewBox="0 0 595.82 646.72"
>
    <g fill="#fff">
        <path d="m356.84 391.47c32.727-120.53 61.03-226.55 62.896-235.6 1.865-9.046 3.608-22.345 3.872-29.552 2.905-79.268-74.939-141.51-153.9-123.05-30.718 7.1806-55.273 24.548-74.997 53.044-21.946 31.707-26.221 60.042-16.022 106.19 2.332 10.551 18.299 72.204 35.483 137.01s42.466 160.41 56.182 212.46 25.398 95.538 25.96 96.641c0.561 1.103 27.798-96.612 60.526-217.14z"/>
        <path d="m385.43 307.66c-86.79-89.372-159.41-160.12-166.25-166.29-6.833-6.172-24.05-20.436-30.156-24.244-67.154-41.88-159.07-9.307-184.68 73.173-6.4222 32.492-7.5219 61.205 9.2452 91.868 17.734 32.43 40.12 50.67 85.653 64.262 10.41 3.108 70.118 20.731 135.6 37.219s159.67 43.795 212.23 57.116c52.551 13.322 95.253 25.047 96.513 25.083s-71.37-68.814-158.16-158.19z"/>
        <path d="m264.23 408.61c120.9-31.222 231.14-62.488 239.92-65.355 8.784-2.867 23.082-9.093 29.482-12.461 69.586-39.559 80.057-128.66 29.123-189.97-21.31-23.644-47.135-38.325-81.597-41.569-38.344-3.6102-66.152 6.3634-101.3 38.468-8.035 7.34-52.777 52.705-100.72 100.32-47.946 47.619-118.72 117.81-157.27 155.98-38.553 38.172-70.657 70.261-71.34 71.31-0.684 1.049 92.802-25.513 213.7-56.735z"/>
        <path d="m238.52 255.74c-31.734 120.8-59.164 227.04-60.955 236.1s-3.424 22.374-3.629 29.583c-2.253 79.289 76.101 140.89 154.91 121.78 30.658-7.433 55.069-25.002 74.558-53.659 21.684-31.886 25.726-60.256 15.148-106.32-2.419-10.531-18.893-72.05-36.609-136.71-17.717-64.659-43.785-160.05-57.929-211.99-14.143-51.936-26.183-95.327-26.753-96.425-0.571-1.0982-27.003 96.837-58.738 217.63z"/>
        <path d="m210.28 342.62c88.587 88.041 166.74 165.06 173.69 171.16s17.639 14.184 23.773 17.977c67.465 41.717 160.05 4.828 183.05-72.932 8.947-30.251 5.992-60.182-9.026-91.415-16.709-34.753-39.225-52.479-84.382-66.432-10.324-3.19-71.809-19.793-136.63-36.897-64.824-17.103-160.43-42.399-212.45-56.211-52.024-13.813-95.601-25.161-96.838-25.218-1.2362-0.057 70.232 71.93 158.82 159.97z"/>
        <path d="m327.22 237.16c-120.13 31.714-225.55 60.034-234.28 62.933-8.7248 2.899-21.058 8.038-27.407 11.421-69.826 37.2-85.159 136.75-30.314 196.8 21.337 23.364 48.425 36.21 82.734 39.234 38.174 3.365 64.73-7.092 99.522-39.188 7.954-7.338 53.279-52.271 100.72-99.852 47.443-47.581 117.47-117.72 155.62-155.86s69.913-70.205 70.588-71.251-97.06 24.046-217.19 55.76z"/>
    </g>
    <g fill="#456673" fill-opacity=".39216">
        <path fill-opacity=".65829" d="m356.83 391.47c32.727-120.53 61.031-226.55 62.896-235.6 1.866-9.046 3.608-22.345 3.872-29.552 2.905-79.268-74.939-141.51-153.9-123.05-30.719 7.1806-55.274 24.548-74.998 53.044-21.946 31.707-26.221 60.042-16.022 106.19 2.332 10.551 18.3 72.204 35.484 137.01s42.466 160.41 56.182 212.46 25.398 95.538 25.959 96.641c0.562 1.103 27.798-96.612 60.526-217.14z"/>
        <path d="m385.43 307.66c-86.79-89.372-159.41-160.12-166.25-166.29-6.834-6.172-24.05-20.436-30.156-24.244-67.155-41.88-159.07-9.307-184.68 73.173-6.4222 32.492-7.5219 61.205 9.2452 91.868 17.734 32.43 40.12 50.67 85.653 64.262 10.41 3.108 70.119 20.731 135.6 37.219s159.67 43.795 212.22 57.116c52.551 13.322 95.253 25.047 96.513 25.083 1.261 0.036-71.37-68.814-158.16-158.19z"/>
        <path d="m264.23 408.61c120.9-31.223 231.14-62.489 239.92-65.356 8.784-2.867 23.083-9.093 29.482-12.461 69.586-39.558 80.057-128.66 29.124-189.97-21.311-23.644-47.135-38.325-81.597-41.569-38.345-3.6103-66.152 6.3633-101.3 38.468-8.035 7.34-52.777 52.705-100.72 100.32-47.946 47.619-118.72 117.81-157.27 155.98-38.553 38.172-70.656 70.261-71.34 71.31s92.802-25.513 213.71-56.734z"/>
        <path d="m238.52 255.74c-31.735 120.8-59.165 227.04-60.956 236.1s-3.424 22.374-3.629 29.583c-2.252 79.289 76.101 140.89 154.91 121.78 30.658-7.433 55.07-25.002 74.558-53.659 21.685-31.886 25.727-60.256 15.148-106.32-2.418-10.531-18.893-72.05-36.609-136.71-17.717-64.659-43.784-160.05-57.928-211.99-14.144-51.936-26.183-95.326-26.754-96.425-0.57-1.0981-27.002 96.837-58.737 217.63z"/>
        <path d="m210.28 342.62c88.587 88.041 166.75 165.06 173.69 171.16 6.94 6.094 17.638 14.184 23.773 17.977 67.464 41.718 160.05 4.828 183.05-72.932 8.946-30.251 5.991-60.182-9.027-91.415-16.709-34.753-39.225-52.479-84.382-66.432-10.324-3.19-71.808-19.793-136.63-36.897-64.823-17.103-160.43-42.399-212.45-56.211-52.024-13.813-95.601-25.161-96.837-25.218s70.232 71.93 158.82 159.97z"/>
        <path d="m327.22 237.16c-120.13 31.714-225.55 60.034-234.28 62.933-8.7247 2.899-21.058 8.038-27.407 11.421-69.826 37.2-85.159 136.75-30.314 196.8 21.337 23.364 48.425 36.21 82.734 39.234 38.174 3.365 64.73-7.092 99.522-39.188 7.954-7.338 53.279-52.271 100.72-99.852 47.442-47.581 117.47-117.72 155.62-155.86s69.914-70.205 70.589-71.251c0.674-1.046-97.06 24.046-217.19 55.76z"/>
    </g>
</svg>
