<svg 
    xmlns="http://www.w3.org/2000/svg" 
    aria-label="Leaflet" 
    role="img"
    viewBox="0 0 239.51944 233.17808"
>
    <linearGradient id="leaf-left-blade" x1="1603.924" x2="1698.0341" y1="1483.083" y2="1483.083" gradientUnits="userSpaceOnUse" gradientTransform="rotate(9.6,8713.6141,-8716.9344)">
        <stop offset="0" stop-color="#89C442"/>
        <stop offset="1" stop-color="#74B844"/>
    </linearGradient>
    <linearGradient id="leaf-left-midrib" x1="1606.047" x2="1687.254" y1="1478.166" y2="1478.166" gradientUnits="userSpaceOnUse" gradientTransform="rotate(9.6,8742.9841,-8773.206)">
        <stop offset="0" stop-color="#74B844"/>
        <stop offset="1" stop-color="#4A9634"/>
    </linearGradient>
    <linearGradient id="leaf-right-blade" x1="1280.9659" x2="1438.704" y1="1562.8311" y2="1562.8311" gradientUnits="userSpaceOnUse" gradientTransform="rotate(161.46,605.00911,-826.89419)">
        <stop offset="0" stop-color="#C1EA71"/>
        <stop offset="1" stop-color="#ACDA55"/>
    </linearGradient>
    <linearGradient id="leaf-right-midrib" x1="1284.556" x2="1422.002" y1="1554.3979" y2="1554.3979" gradientUnits="userSpaceOnUse" gradientTransform="rotate(161.46,605.00107,-826.82191)">
        <stop offset="0" stop-color="#ACDA55"/>
        <stop offset="1" stop-color="#89C442"/>
    </linearGradient>

    <path fill="url(#leaf-left-blade)" d="m 3.5102244,92.395 c 2.234,2.608 46.0969996,17.218 61.3469996,34.97 15.25,17.754 21.907,33.598 19.754,48.832 -2.15,15.234 -11.47,14.982 -15.54,20.53 -4.07,5.547 -9.69,12.388 -20.49,11.66 -14.14,-0.948 -28.72,-8.014 -39.2499996,-32.54 -10.53,-24.527 -9.72000001,-47.567 -8.88000001,-60.35 C 1.2912244,102.717 3.4912244,92.395 3.4912244,92.395 Z"/>
    <path fill="url(#leaf-left-midrib)" d="M 4.5875439,96.050382 66.566224,198.529 l -3.028,3.38"/>
    <path fill="#3c3c3b" stroke="#FFF" fill-rule="evenodd" clip-rule="evenodd" d="m 12.591224,225.641 c 21.72,-9.72 58.63,-30.71 65.13,-36.21 7.14,-6.04 16.66,-5.85 25.999996,-8 16.82,-3.87 34.77,-7.81 49.33,-16.29 9,6.25 27.84,9.36 37.91,7.18 10.51,-2.28 26.82,-19.73 35.55,-25.9 3.43,-2.42 8.45,-7.13 12.14,-4.46 -2.48,1.7 0.44,6.68 -2.6,5.82 -1.59,-3.04 -4.76,0.47 -7.07,-0.12 -8.79,7.21 -17.92,13.96 -26.88,20.94 -4.18,2.57 4.03,5.23 -0.87,6.07 -23.14,4.6 -58.38,-6.92 -72.968,9.07 -23.115,7.91 -44.979996,9.92 -67.759996,22.2 -13.09,7.06 -29.108,19.9 -42.734,26.65 -1.41309,0.94645 -7.32227,-6.15121 -5.178,-6.95 z"/>
    <path fill="url(#leaf-right-blade)" d="m 168.65222,0 c -3.05,4.944 -72.599996,40.807 -93.474996,74.472 -20.873,33.665 -26.828,60.172 -19.26,85.09 7.566,24.914 22.03,23.792 30.275,32.008 8.246,8.22 19.431996,18.193 37.299996,14.166 23.395,-5.275 45.94,-20.89 57.155,-64.65 11.214,-43.762 3.86,-82.083 -0.88,-103.242 C 175.03022,16.687 168.65422,0 168.65422,0 Z"/>
    <path fill="url(#leaf-right-midrib)" d="m 167.46922,7.39 -84.337996,180.893 4.95,4.97"/>
</svg>
