<svg
    xmlns="http://www.w3.org/2000/svg"
    aria-label="Less"
    role="img"
    viewBox="0 0 961.06 961.06"
>
    <defs>
        <linearGradient id="linear-gradient" x1="464.32" x2="464.32" y1="532.27" y2="108.46" gradientTransform="matrix(1 0 0 -1 -110.82 852.73)" gradientUnits="userSpaceOnUse">
            <stop stop-color="#2a4f84" offset=".1497"/>
            <stop stop-color="#294e82" offset=".3884"/>
            <stop stop-color="#172e4e" offset="1"/>
        </linearGradient>
    </defs>
    <path fill="url(#linear-gradient)" d="m909.29 622.75c0 44.958-36.783 81.742-81.741 81.742h-687.05c-44.958 0-81.742-36.784-81.742-81.742v-260.32c0-44.958 36.784-81.742 81.742-81.742h687.05c44.957 0 81.741 36.784 81.741 81.742z"/>
    <g fill="#f6f6f6">
        <path d="m765.57 487.03c35.908 12.563 53.856 34.088 53.856 64.543 0 20.046-7.443 35.957-22.296 47.725-14.838 11.776-36.006 19.084-63.558 19.084s-53.037-7.983-76.51-21.088c0.254-6.95 2.091-14.575 5.463-22.852s7.364-14.853 11.936-19.656c21.573 11.211 40.346 16.826 56.281 16.826 7.531 0 13.358-1.264 17.414-3.809 4.063-2.536 6.083-5.94 6.083-10.217 0-8.039-6.226-14.051-18.638-18.058l-22.296-8.421c-33.73-12.293-50.596-32.323-50.596-60.146 0-20.316 7.085-36.418 21.255-48.33 14.17-11.895 33.269-22.137 57.283-22.137 11.88 0 24.96 1.67 39.272 5.01 14.297 3.348 26.042 11.594 35.218 16.125 0.541 7.49-0.962 15.712-4.452 24.665-3.515 8.961-7.824 15.306-12.969 19.052-22.685-10.162-41.562-15.243-56.686-15.243-5.415 0-9.494 1.201-12.357 3.618-2.831 2.41-4.223 5.478-4.223 9.224 0 6.417 5.121 11.49 15.386 15.235z"/>
        <path d="m586.22 487.03c35.908 12.563 53.847 34.088 53.847 64.543 0 20.046-7.442 35.957-22.271 47.725-14.853 11.776-36.028 19.084-63.573 19.084-27.528 0-53.045-7.983-76.509-21.088 0.254-6.95 2.091-14.575 5.47-22.852 3.372-8.277 7.347-14.853 11.936-19.656 21.597 11.211 40.361 16.826 56.289 16.826 7.538 0 13.365-1.264 17.406-3.809 4.048-2.536 6.083-5.94 6.083-10.217 0-8.039-6.226-14.051-18.638-18.058l-22.281-8.421c-33.738-12.293-50.611-32.323-50.611-60.146 0-20.316 7.085-36.418 21.27-48.33 14.161-11.895 33.253-22.137 57.266-22.137 11.873 0 24.985 1.67 39.266 5.01 14.312 3.348 26.042 11.594 35.224 16.125 0.542 7.49-0.961 15.712-4.451 24.665-3.507 8.961-7.824 15.306-12.962 19.052-22.693-10.162-41.57-15.243-56.702-15.243-5.406 0-9.501 1.201-12.348 3.618-2.823 2.41-4.23 5.478-4.23 9.224 0 6.417 5.127 11.49 15.394 15.235z"/>
        <path d="m455.42 489.86c0-12.293-1.956-23.656-5.868-34.089-3.904-10.432-9.51-19.378-16.794-26.868-7.292-7.49-16.126-13.367-26.511-17.645-10.401-4.27-22.074-10.711-35.027-10.711-15.387 0-28.816 6.966-40.282 12.317-11.466 5.344-20.913 12.691-28.332 22.05-7.435 9.366-12.969 20.388-16.611 33.086-3.642 12.699-5.463 26.534-5.463 41.499 0 15.49 1.479 29.818 4.453 42.914 2.966 13.08 8.03 24.435 15.18 34.073 7.156 9.621 16.467 17.104 27.941 22.439 11.474 5.344 25.715 9.447 42.716 9.447 31.305 0 57.752-9.065 79.348-24.292-2.139-15.49-7.657-27.807-16.523-36.896-11.029 4.142-20.786 7.108-29.246 8.93-8.468 1.798-15.935 2.704-22.383 2.704-12.906 0-22.193-3.284-27.83-9.915-5.631-6.608-8.72-14.424-9.267-26.296h105.26c3.477-11.243 5.234-26.438 5.234-42.747zm-110.9 2.776c0.803-13.645 3.293-28.244 7.436-34.255 4.151-6.019 10.504-9.025 19.083-9.025 8.835 0 15.466 3.197 19.879 9.614 4.422 6.417 6.631 19.346 6.631 29.237l8e-3 4.429z"/>
        <path d="m259.88 564.83h-10.933c-11.887 0-16.364-6.25-16.364-18.805v-230.74c0-13.875-4.008-23.616-9.137-29.229-5.13-5.598-14.034-5.542-26.717-5.542h-24.69l-2.911-0.056v0.238l-0.024 34.343v242.16c0 19.258 4.327 33.349 12.023 42.318 7.704 8.953 20.722 13.422 39.073 13.422 12.691 0 27.131-1.336 43.32-4.016 0.812-2.704 1.217-8.492 1.217-17.374 0-8.906-1.621-17.788-4.857-26.71z"/>
    </g>
    <g fill="#f6f6f6" stroke="#404040" stroke-miterlimit="10" stroke-width="5.1509">
        <path d="m930.49 519.31c-11.443 9.995-18.082 24.379-18.082 43.185v70.037c0 23.282-7.158 40.99-23.322 53.164-16.15 12.158-34.98 18.177-56.472 18.757l-12.739-0.096v-34.899c11.229-3.276 15.84-7.084 20.308-11.41 8.095-7.315 14.297-19.219 14.297-35.75v-56.543c0.303-19.219 1.781-34.279 8.779-45.157 7.022-10.878 20.69-20.388 41.006-28.602-22.439-10.273-37.508-23.688-45.189-40.235-4.516-9.828-4.605-23.091-4.605-39.774v-51.852c0-17.128-5.606-29.126-12.5-35.973-4.483-4.469-9.701-8.039-22.113-10.734v-32.761c15.18 0.159 22.845-0.015 31.688 0 13.612-0.111 25.015 7.332 34.938 15.084 10.807 8.5 18.487 19.991 22.988 34.454 2.56 8.357 2.927 16.341 2.927 23.942v59.971c0 21.182 6.258 36.927 16.953 47.208 6.028 5.964 14.535 11.418 29.143 16.341v27.091c-12.944 3.579-21.072 8.429-28.005 14.552z"/>
        <path d="m125.29 280.69v0.047c-4.349-0.024-8.286-0.04-11.434-0.032-13.621-0.119-25.024 7.324-34.938 15.084-10.822 8.5-20.085 19.593-22.987 34.454-1.654 8.715-1.304 16.332-1.304 23.942v59.971c0 21.175-7.88 36.911-18.567 47.209-6.02 5.963-18.87 11.409-33.485 16.331v27.09c12.953 3.571 25.422 8.405 32.339 14.544 11.45 10.003 19.703 24.396 19.703 43.2v70.037c0 23.267 5.551 40.991 21.7 53.148 16.15 12.15 34.972 18.193 56.464 18.781l14.383-0.096v-34.923c-11.22-3.284-17.452-7.093-21.945-11.403-8.087-7.324-12.667-19.219-12.667-35.742v-56.551c-0.31-19.234-3.411-34.279-10.416-45.165-7.0055-10.862-20.674-20.388-41.014-28.594 22.448-10.281 37.508-23.688 45.19-40.227 4.524-9.836 6.241-23.099 6.241-39.781v-51.852c0-17.128 3.976-29.126 10.863-35.98 3.736-3.721 10.384-6.783 19.617-9.263l14.598 0.102v-34.334h-32.339v3e-3z"/>
    </g>
</svg>
