<svg 
    xmlns="http://www.w3.org/2000/svg" 
    aria-label="Mapbox" 
    role="img"
    viewBox="0 0 177.8 177.8"
>
    <path d="M 88.9,0 C 39.8,0 0,39.8 0,88.9 0,138 39.8,177.8 88.9,177.8 138,177.8 177.8,138 177.8,88.9 177.8,39.8 138,0 88.9,0 Z m 42.2,110.7 c -30.4,30.4 -84.7,20.7 -84.7,20.7 0,0 -9.8,-54.2 20.7,-84.7 16.9,-16.9 44.9,-16.2 62.6,1.4 17.7,17.6 18.3,45.7 1.4,62.6 z"/>
    <polygon points="77.5,79.8 95.4,88.5 104.1,106.4 112.8,88.5 130.7,79.8 112.8,71.1 104.1,53.2 95.4,71.1"/>
</svg>
