<svg
    xmlns="http://www.w3.org/2000/svg"
    aria-label="Node.js"
    role="img"
    viewBox="0 0 107.4398 107.4398"
>
  <defs>
    <linearGradient gradientTransform="translate(-109.8299 -61.93)" gradientUnits="userSpaceOnUse" y2="158.4" x2="142.6" y1="80.7" x1="180.7" id="a">
      <stop stop-color="#3f873f" offset="0"/>
      <stop stop-color="#3f8b3d" offset=".3"/>
      <stop stop-color="#3e9637" offset=".6"/>
      <stop stop-color="#3da92e" offset=".9"/>
      <stop stop-color="#3dae2b" offset="1"/>
    </linearGradient>
    <linearGradient gradientUnits="userSpaceOnUse" y2="115.7" x2="212.3" y1="115.7" x1="114.9" id="d">
      <stop stop-color="#6abf4b" offset=".1"/>
      <stop stop-color="#63b649" offset=".3"/>
      <stop stop-color="#529f44" offset=".6"/>
      <stop stop-color="#3f873f" offset=".9"/>
    </linearGradient>
    <linearGradient gradientUnits="userSpaceOnUse" y2="42.4" x2="264" y1="121.3" x1="157.2" id="c">
      <stop stop-color="#3f873f" offset=".1"/>
      <stop stop-color="#529f44" offset=".4"/>
      <stop stop-color="#63b649" offset=".7"/>
      <stop stop-color="#6abf4b" offset=".9"/>
    </linearGradient>
    <clipPath transform="translate(-.3)" id="b">
      <path fill="url(#b)" d="M166.1 62.6a5 5 0 00-5 0L118.8 87a5 5 0 00-2.5 4.4V140a5 5 0 002.5 4.4l42.1 24.3a5 5 0 005 0l42.2-24.3a5 5 0 002.6-4.4V91.3a5 5 0 00-2.6-4.4z"/>
    </clipPath>
  </defs>
  <path fill="url(#a)" fill-rule="evenodd" d="M56.2701.67a5 5 0 00-5 0l-42.3 24.4a5 5 0 00-2.5 4.4v48.6a5 5 0 002.5 4.4l42.1 24.2999a5 5 0 005 0l42.2-24.3a5 5 0 002.6-4.4v-48.7a5 5 0 00-2.6-4.4z"/>
  <g transform="translate(-109.5299 -61.93)" clip-path="url(#b)">
    <path transform="translate(-.3)" fill="url(#c)" d="M208.3 87l-42.2-24.4a5 5 0 00-1.3-.5l-47.5 81.1a6 6 0 001.4 1.2l42.4 24.3a5.2 5.2 0 003.9.5l44.5-81.4a6 6 0 00-1.2-.9z"/>
    <path transform="translate(-.3)" fill="url(#d)" d="M208.3 144.4a5.3 5.3 0 002.5-3.2L164.5 62a5.2 5.2 0 00-3.6.6L119 86.8l45.3 82.6a5.2 5.2 0 001.9-.7z"/>
  </g>
</svg>