<svg 
    xmlns="http://www.w3.org/2000/svg" 
    aria-label="Mapbox" 
    role="img"
    viewBox="0 0 36.936749 40.011002"
>
    <g fill="#cfd8dc">
        <path d="m 17.08575,8.288 c -1.633,-2.449 -1.986,-5.722 -2.063,-7.067 -4.148,0.897 -8.2690004,2.506 -8.0310004,3.691 0.03,0.149 0.218,0.328 0.53,0.502 l -0.488,0.873 c -0.596,-0.334 -0.931,-0.719 -1.022,-1.179 -0.269,-1.341 1.25,-2.554 4.6420004,-3.709 2.316,-0.789 4.652,-1.26 4.751,-1.279 L 16.00175,0 v 0.611 c 0,0.042 0.026,4.288 1.916,7.123 z"/>
        <path d="m 18.75275,40.011 h -0.251 c -8.192,0 -17.3090004,-2.573 -18.38600036,-6.879 -0.657,-2.63 1.49199996,-5.536 6.21399996,-8.401 l 0.52,0.854 c -4.249,2.579 -6.29599996,5.172 -5.763,7.305 0.935,3.738 9.5750004,6.068 17.1530004,6.12 0.901,-1.347 5.742,-9.26 2.979,-19.873 l 0.967,-0.252 c 3.149,12.092 -3.218,20.837 -3.282,20.924 z"/>
        <path d="m 3.9327496,36.317 c -0.539,0 -0.806,-0.059 -0.85,-0.07 -0.176,-0.043 -0.314,-0.178 -0.362,-0.352 -0.049,-0.174 10e-4,-0.361 0.129,-0.488 0.072,-0.072 7.1970004,-7.208 8.1590004,-12.978 l 0.986,0.164 c -0.827,4.964 -5.7150004,10.623 -7.6560004,12.707 1.939,-0.111 6.8350004,-1.019 16.2340004,-6.28 -7.335,-0.804 -8.495,-6.676 -8.507,-6.739 l 0.983,-0.181 c 0.047,0.246 1.226,6.011 9.244,6.011 0.003,0 0.005,0 0.008,0 v 0 c 0.227,0 0.424,0.152 0.482,0.37 0.06,0.218 -0.036,0.449 -0.231,0.563 -11.235,6.509 -16.6830004,7.272 -18.6190004,7.273 z"/>
        <path d="m 8.5257496,38.711 c -0.207,0 -0.395,-0.128 -0.468,-0.325 -0.079,-0.211 -0.007,-0.45 0.177,-0.582 0.034,-0.025 1.8130004,-1.338 3.7060004,-4.228 -0.728,-0.322 -1.465,-0.698 -2.1960004,-1.137 -0.888,-0.533 -1.559,-1.105 -2.06,-1.691 -2.57,0.678 -4.942,0.946 -7.02499996,0.769 l 0.084,-0.996 c 1.87599996,0.159 4.00899996,-0.063 6.32099996,-0.64 -1.573,-2.688 -0.129,-5.356 -0.109,-5.392 l 0.874,0.487 c -0.067,0.122 -1.265,2.37 0.249,4.633 2.2010004,-0.632 4.5490004,-1.567 6.9790004,-2.782 0.559,-1.835 0.996,-3.922 1.225,-6.276 0.016,-0.161 0.108,-0.304 0.248,-0.385 0.14,-0.081 0.311,-0.088 0.458,-0.021 0.032,0.015 3.264,1.491 5.604,2.454 0.17,0.07 0.288,0.228 0.307,0.411 0.02,0.183 -0.063,0.361 -0.216,0.465 -2.289,1.56 -4.563,2.913 -6.778,4.042 -0.702,2.225 -1.571,4.077 -2.459,5.591 3.702,1.383 6.915,1.404 6.956,1.404 0.228,0 0.427,0.154 0.484,0.375 0.057,0.221 -0.042,0.452 -0.241,0.563 -4.54,2.522 -11.7670004,3.232 -12.0720004,3.261 -0.016,-10e-4 -0.032,0 -0.048,0 z M 12.91075,33.978 c -1.04,1.614 -2.062,2.773 -2.826,3.53 1.998,-0.294 5.501,-0.938 8.408,-2.139 -1.392,-0.171 -3.407,-0.551 -5.582,-1.391 z M 8.7687496,30.442 c 0.393,0.392 0.883,0.775 1.4900004,1.14 0.736,0.442 1.483,0.817 2.22,1.135 0.754,-1.264 1.501,-2.781 2.142,-4.568 -2.021,0.962 -3.983,1.73 -5.8520004,2.293 z M 17.20375,21.34 c -0.205,1.768 -0.521,3.381 -0.913,4.85 1.66,-0.885 3.354,-1.896 5.062,-3.026 -1.549,-0.656 -3.252,-1.419 -4.149,-1.824 z"/>
        <path d="m 11.92575,7.611 c -0.117,0 -0.233,-0.042 -0.325,-0.12 C 9.9907496,6.113 8.0957496,3.309 8.0157496,3.19 c -0.129,-0.191 -0.109,-0.446 0.046,-0.616 0.154,-0.171 0.408,-0.211 0.608,-0.102 0.011,0.003 0.938,0.385 7.2170004,1.431 0.181,0.03 0.33,0.156 0.39,0.328 0.061,0.172 0.022,0.364 -0.1,0.5 -1.758,1.953 -3.979,2.813 -4.073,2.848 -0.058,0.021 -0.119,0.032 -0.178,0.032 z M 9.6487496,3.757 C 10.27975,4.606 11.18875,5.753 12.02075,6.526 c 0.511,-0.233 1.657,-0.818 2.744,-1.798 -2.583,-0.441 -4.159,-0.755 -5.1160004,-0.971 z"/>
    </g>
    <g fill="#b71c1c">
        <path d="m 15.84475,21.411 c -0.068,0 -0.137,-0.014 -0.201,-0.042 -0.199,-0.088 -0.319,-0.294 -0.296,-0.51 0.292,-2.749 -3.926,-3.852 -3.969,-3.862 -0.174,-0.044 -0.312,-0.179 -0.359,-0.352 -0.047,-0.173 0.002,-0.359 0.129,-0.486 0.207,-0.207 5.139,-5.098 11.327,-7.784 0.173,-0.075 0.369,-0.047 0.515,0.07 0.145,0.118 0.212,0.307 0.174,0.489 -1.186,5.744 -6.71,12.044 -6.944,12.309 -0.099,0.109 -0.237,0.168 -0.376,0.168 z m -3.388,-5.115 c 1.184,0.445 3.258,1.475 3.783,3.356 1.449,-1.808 4.542,-5.973 5.697,-9.934 -4.387,2.11 -8.081,5.292 -9.48,6.578 z"/>
        <path d="m 7.0807496,25.371 -0.475,-0.88 c 1.883,-1.015 4.0400004,-2.883 5.8070004,-5.054 -1.504,1.03 -2.365,1.735 -2.392,1.758 l -0.6390004,-0.77 c 0.039,-0.032 1.7640004,-1.447 4.6310004,-3.22 0.787,-1.266 1.392,-2.568 1.703,-3.816 0.053,-0.212 0.099,-0.417 0.136,-0.615 -1.925,-0.687 -3.701,-1.094 -4.921,-1.269 -0.185,-0.026 -0.339,-0.153 -0.401,-0.328 -0.062,-0.175 -0.021,-0.371 0.104,-0.507 0.085,-0.092 2.116,-2.268 4.654,-3.463 0.197,-0.093 0.433,-0.047 0.581,0.114 0.067,0.073 1.44,1.615 1.091,4.805 1.155,0.45 2.345,0.997 3.491,1.648 2.759,-1.24 5.892,-2.356 9.229,-3.03 0.172,-0.034 0.363,0.028 0.481,0.168 0.117,0.14 0.149,0.333 0.083,0.503 -1.3,3.332 -4.786,6.891 -4.934,7.041 -0.101,0.102 -0.239,0.153 -0.383,0.148 -0.143,-0.008 -0.275,-0.076 -0.365,-0.188 -1.12,-1.408 -2.584,-2.574 -4.163,-3.523 -2.175,1.004 -4.101,2.078 -5.684,3.049 -2.02,3.153 -5.0690004,6.048 -7.6340004,7.429 z M 21.49375,14.407 c 1.29,0.832 2.491,1.81 3.484,2.948 0.828,-0.898 2.815,-3.168 3.942,-5.422 -2.65,0.61 -5.158,1.493 -7.426,2.474 z m -4.693,-1.274 c -0.033,0.163 -0.071,0.33 -0.113,0.5 -0.21,0.839 -0.544,1.701 -0.972,2.561 1.096,-0.626 2.309,-1.272 3.618,-1.898 -0.838,-0.444 -1.693,-0.83 -2.533,-1.163 z m -4.751,-2.45 c 1.111,0.218 2.48,0.574 3.941,1.086 0.152,-1.843 -0.346,-2.972 -0.647,-3.472 -1.376,0.718 -2.581,1.728 -3.294,2.386 z"/>
        <path d="m 12.05175,15.511 c 0,4.38 -3.6500004,7.86 -6.2800004,10.4 -0.44,0.43 -1.93,0.5 -1.93,0.5 0.37,-0.38 0.79,-0.78 1.24,-1.21 2.5,-2.42 5.9700004,-5.73 5.9700004,-9.69 0,-4.69 -1.8900004,-6.54 -3.3800004,-8.02 -0.66,-0.67 -1.22,-1.31 -1.56,-2.09 l 0.31,-0.13 c 0.34,0.15 0.73,0.32 1.03,0.45 0.24,0.35 0.56,0.69 0.93,1.06 1.53,1.53 3.6700004,3.63 3.6700004,8.73 z"/>
        <path d="m 36.93675,16.805 c 0,0 -0.605,0.086 -0.775,0.106 -8.76,0.97 -17.8,3.49 -22.97,5.56 -1.87,0.75 -3.8100004,1.66 -5.5800004,2.68 -0.01,0.01 -0.02,0.01 -0.04,0.02 -1.04,0.6 -3.57,1.84 -5.62,2.93 3,-3.19 8.6200004,-5.65 10.8600004,-6.55 5.07,-2.03 13.78,-4.48 22.35,-5.53 -1.01,-1.18 -3.48,-3.68 -8.34,-5.54 -2.84,-1.1 -7.16,-1.72 -10.97,-2.27 -6.0600004,-0.87 -9.5100004,-1.45 -9.8400004,-3.1 -0.07,-0.33 -0.02,-0.66 0.13,-0.98 0.33,0.54 0.8,0.92 1.11,1.14 0.15,0.1 0.26,0.16 0.3,0.18 l 0.01,0.01 c 1.42,0.75 5.2500004,1.3 8.4400004,1.76 3.86,0.56 8.23,1.19 11.18,2.32 6.87,2.65 9.24,6.44 9.34,6.6 0.09,0.15 0.415,0.664 0.415,0.664 z"/>
    </g>
</svg>
