<svg
    aria-label="VBA"
    role="img"
    viewBox="0 0 170.82 170.82"
    xmlns="http://www.w3.org/2000/svg"
>
    <path d="m100.89 106.46v-28.084l36.11 17.196v30.38l-36.11-19.49"/>
    <path d="m100.89 78.379 34.393-14.905 34.966 16.623-31.53 16.624-37.83-18.342"/>
    <path d="m136.43 96.148 0.57 29.807 33.823-16.62-0.575-29.23-33.82 16.05"/>
    <g fill="#952781">
        <path d="m103.75 104.17v-22.357l32.098 15.478v24.08z"/>
        <path d="m106.62 78.952 28.09-12.04 29.805 13.76-26.94 13.756z"/>
        <path d="m139.86 97.294v24.075l27.515-13.755v-24.65z"/>
    </g>
    
    <path d="m49.3 77.231v-28.087l36.11 17.198v30.38l-36.11-19.49"/>
    <path d="m49.3 49.144 34.387-14.33 34.968 16.05-31.525 16.624-37.83-18.344"/>
    <path d="m84.836 66.914 0.573 29.807 33.82-16.624-0.58-29.232-33.819 16.049"/>
    <g fill="#6483c0">
        <path d="m52.165 74.939v-22.355l32.098 15.477v24.65l-32.098-17.773"/>
        <path d="m55.027 49.718 28.09-12.037 29.808 13.756-26.942 13.757-30.956-15.475"/>
        <path d="m88.276 68.061v24.075l27.514-13.757v-24.075z"/>
    </g>

    <path d="m0 104.75v-28.087l35.54 17.195 0.573 30.385-36.113-19.493"/>
    <path d="m0 76.659 34.392-14.903 34.968 16.623-32.1 16.625-37.26-18.346"/>
    <path d="m34.915 94.256 1.198 29.982 33.82-16.624-0.574-29.235"/>
    <g fill="#d87b30">
        <path d="m2.866 102.45v-22.358l32.1 15.478v24.08z"/>
        <path d="M 5.16,77.231 33.82,65.194 63.628,78.954 36.685,92.71 5.16,77.23"/>
        <path d="m38.405 95.574 0.575 24.078 27.514-13.76-0.573-24.648-27.51 14.33"/>
    </g>

    <path d="m52.165 108.76v-28.086l35.537 17.196 0.574 30.95-36.11-20.06"/>
    <path d="m52.165 80.672 34.39-14.33 34.968 16.048-32.1 16.624-37.258-18.342"/>
    <path d="m87.182 98.417 1.0939 30.403 33.247-17.196v-29.234l-34.619 15.65"/>
    <g fill="#e0d400">
        <path d="m55.027 107.04v-22.93l32.103 15.478v24.65l-32.104-17.197"/>
        <path d="m57.322 81.817 28.66-12.037 29.808 13.757-27.514 13.184z"/>
        <path d="m90.57 99.588 0.57 24.074 27.516-13.184-0.573-24.648z"/>
    </g>
</svg>
