<svg 
    xmlns="http://www.w3.org/2000/svg"
    aria-label="Webpack" 
    role="img"
    viewBox="0 0 987.8623 1117.6628"
>
    <path fill="#ffffff" d="M 493.93116,0 987.86233,279.3838 V 838.27901 L 493.93116,1117.6628 0,838.27901 V 279.3838 Z" />
    <path fill="#8ed6fb" d="M 899.66944,819.00681 510.2679,1039.2975 V 867.76171 L 752.89403,734.25993 Z m 26.67483,-24.1223 V 334.26504 L 783.90831,416.5869 V 712.69033 Z M 86.661308,819.00681 476.06285,1039.2975 V 867.76171 L 233.30909,734.25993 Z M 59.986471,794.88451 V 334.26504 L 202.42243,416.5869 V 712.69033 Z M 76.706105,304.39943 476.06285,78.49293 v 165.7924 l -255.89974,140.77676 -2.04209,1.14868 z m 832.918535,0 L 510.2679,78.49293 v 165.7924 l 255.89973,140.64913 2.04209,1.14868 z" />
    <path fill="#1c78c0" d="M 476.06285,828.70671 236.62749,696.99174 v -260.7497 l 239.43536,138.22414 z m 34.20505,0 239.43536,-131.58734 V 436.24204 L 510.2679,574.46618 Z M 493.16537,564.51098 Z M 252.8366,406.12117 493.16537,274.0233 733.49415,406.12117 493.16537,544.85584 Z" />
</svg>
