<svg
    xmlns="http://www.w3.org/2000/svg"
    aria-label="Fleet Assist"
    role="img"
    viewBox="0 0 153.21 44.879"
>
    <defs>
        <clipPath
            id="clip-hand-line=cap"
            clipPathUnits="userSpaceOnUse"
        >
            <rect
                y="0"
                x="0.123px"
                height="44.879"
                width="153.087"
            />
        </clipPath>
    </defs>
    <g 
        fill="#0d3141"
        clip-path="url(#clip-hand-line=cap)"
    >
        <path
            fill="#fff"
            stroke="#0d3141"
            stroke-width="1.4192"
            d="m60.267 43.927c1.6-1.7333 2.6666-3.8667 3.2-6.2667l6.1333-29.333c0.881-4.3169 4.6609-7.4298 9.0666-7.4666h73.6v34c0 5.0667-4 9.0667-9.333 9.0667z"
        />
        <path d="m74.666 22.327h4.1334l1.8666-9.0666h2.9334l0.6666-2.8h-2.9333l0.1333-0.8c0.2667-1.2 0.8-1.8667 1.8667-1.8667l1.3333 0.13333 0.8-2.6667c-0.5333-0.26666-1.2-0.4-2.1333-0.4-3.2 0-5.2 1.3333-5.8667 4.8l-0.1333 0.8h-2.6667l-0.5333 2.8h2.5333z"/>
        <path d="m83.866 22.327h4.1333l3.6-17.2h-4.1333z"/>
        <path d="m96 15.26c0.4-1.3333 1.3334-2.5333 2.8-2.5333 1.7332 0 2.1332 1.2 1.8662 2.5333zm7.8662 2.2666 0.134-0.6666c0.8-3.6-0.267-6.6667-4.6668-6.6667-3.6855-0.0691-6.8893 2.5164-7.6 6.1334-0.8 3.9999 1.7333 6.2666 5.6 6.2666 1.4666 0 3.0668-0.2667 4.5328-0.8l0.534-2.8c-1.334 0.6667-2.6668 0.8-3.7335 0.8-2 0-3.2-0.5333-3.0667-2.2667z"/>
        <path d="m110.13 15.26c0.267-1.3333 1.2-2.5333 2.667-2.5333 1.6 0 2 1.2 1.733 2.5333zm7.6 2.2666 0.267-0.6666c0.666-3.6-0.267-6.6667-4.667-6.6667-3.735-0.1353-7.014 2.4654-7.733 6.1334-0.8 3.9999 1.733 6.2666 5.733 6.2666 1.467 0 3.067-0.2667 4.533-0.8l0.534-2.8c-1.334 0.6667-2.667 0.8-3.867 0.8-2 0-3.067-0.5333-2.933-2.2667z"/>
        <path d="m127.33 19.793h-0.667c-1.333 0-1.6-0.6667-1.333-2.1333l1.067-4.4h2.8l0.666-2.8h-2.933l0.8-4-4.267 1.3333-0.533 2.6667h-2.4l-0.667 2.8h2.4l-1.066 4.9333c-0.534 2.6667 0 4.4 3.6 4.4 1.066 0 1.2-0.1333 2-0.2667z"/>
        <path d="m91.866 37.127c-1.0667 0-2.1333-0.6667-2.1333-1.7333 0-2.4 2.6666-2.8 4.5333-2.8h1.7333c-0.2666 2.1333-1.7333 4.5333-4 4.5333m-2.1333-8.5333c1.1774-0.6782 2.5081-1.0453 3.8667-1.0667 1.7333 0 2.9333 0.6667 2.9333 2.5333l-0.1333 0.8h-1.7334c-4.2666 0-7.4666 0.9334-7.4666 4.5334 0 2.4 1.8666 3.6 4 3.6 1.7333 0 3.3333-0.9334 4.1333-2.4l-0.4 2.1333h2.2667c0.2666-2.2667 0.8-4.6667 1.3333-7.0667l0.1333-1.9999c0-3.0667-2.4-4-4.9333-4-0.9333 0-2.5333 0.2666-3.6 0.6666z"/>
        <path d="m110.13 26.327c-0.933-0.4-2.133-0.6666-3.2-0.6666-2.133 0-4.8 1.0666-4.8 3.7333 0 3.2 4.267 3.4666 4.267 5.7333 0 1.3333-1.334 2-2.667 2-0.933 0-2-0.4-2.8-0.8l-0.533 2c0.933 0.4 1.733 0.6667 3.733 0.6667s4.8-1.0667 4.8-4c0-3.6-4.267-3.7334-4.267-5.8667 0-1.3333 1.334-1.6 2.267-1.6s2 0.2667 2.667 0.6667z"/>
        <path d="m120 26.327c-1.067-0.4-2.267-0.6666-3.334-0.6666-2.133 0-4.8 1.0666-4.8 3.7333 0 3.2 4.267 3.4666 4.267 5.7333 0 1.3333-1.333 2-2.667 2-0.933 0-2-0.4-2.933-0.8l-0.4 2c0.933 0.4 1.733 0.6667 3.733 0.6667s4.8-1.0667 4.8-4c0-3.6-4.4-3.7334-4.4-5.8667 0-1.3333 1.334-1.6 2.4-1.6 0.934 0 1.867 0.2667 2.667 0.6667z"/>
        <path d="m120.93 38.727h2.4l2.667-12.8h-2.267z"/>
        <path d="m136.53 26.327c-0.933-0.4-2.133-0.6666-3.2-0.6666-2.133 0-4.8 1.0666-4.8 3.7333 0 3.2 4.267 3.4666 4.267 5.7333 0 1.3333-1.334 2-2.667 2-1.067 0-2-0.4-2.933-0.8l-0.4 2c0.933 0.4 1.733 0.6667 3.733 0.6667s4.8-1.0667 4.8-4c0-3.6-4.4-3.7334-4.4-5.8667 0-1.3333 1.333-1.6 2.4-1.6 0.933 0 1.867 0.2667 2.667 0.6667z"/>
        <path d="m138.13 27.793h2.667l-1.067 5.3333-0.4 3.0667c0 1.3333 0.8 2.6666 3.067 2.6666l2.266-0.1333 0.4-2c-0.533 0.2667-1.2 0.4-1.733 0.4-1.2 0-1.6-0.5333-1.6-1.3333l0.267-2.5334 1.333-5.3333h3.467l0.4-2h-3.6l0.8-3.8666-2.534 0.9333-0.533 2.9333h-2.933z"/>
        <path
            stroke="#0d3141"
            stroke-width=".8198"
            d="m0.5334 29.927v-20.267c0-5.3333 4.2667-9.3333 9.3333-9.3333h56.4c-1.6 1.8667-2.8 4-3.3334 6.2666l-6.2666 30.133c-0.8439 4.4689-4.7861 7.679-9.3333 7.6h-46.8v-3.6z"
        />
        <g
            stroke="#fff"
            stroke-width="1.1988"
        >
            <path d="m9.8667 10.06c-1.6 0.5333-1.7333 1.8667-1.7333 1.8667v3.7333c0 1.3333 4.6667 2 4.6667 2h33.067s4.9333 0 6.6666-0.9333c1.7334-0.9334 1.3334-3.2 1.0667-4-0.2667-0.9334-5.3333-2.1334-8.5333-2.6667-3.0667-0.53333-4-1.0667-7.6-3.4667-3.7333-2.2667-5.8666-2.1333-5.8666-2.1333h-11.733s-0.9333 0-1.5999 0.8c-0.8 0.53333-2.9334 4-2.9334 4l-5.3333 0.8z"/>
            <path d="m39.467 17.66c0-1.5243 0.8132-2.9329 2.1333-3.6951 1.3201-0.7621 2.9466-0.7621 4.2667 0 1.3201 0.7622 2.1333 2.1708 2.1333 3.6951s-0.8132 2.9328-2.1333 3.695-2.9466 0.7622-4.2667 0-2.1333-2.1707-2.1333-3.695z"/>
            <path d="m14.133 17.66c0-1.5482 0.826-2.9787 2.1667-3.7528s2.9926-0.7741 4.3333 0 2.1667 2.2046 2.1667 3.7528c0 1.5481-0.826 2.9787-2.1667 3.7527-1.3407 0.7741-2.9926 0.7741-4.3333 0-1.3407-0.774-2.1667-2.2046-2.1667-3.7527z"/>
            <path
                fill="#0d3141"
                stroke-linecap="round"
                d="m-0.79997 20.993s4-1.2 7.7333-1.2c3.8666 0 11.467 3.7333 16.8 3.0667 5.0667-0.6667 12.533-2 13.333 1.8666l0.5333-0.2666s3.0667-2.6667 9.3333-2.6667c6 0 7.4667 2.9333 7.4667 3.8667 0 2.8-4 2.5333-6.8 2.4-2.9333 0-6.2666 1.3333-7.2 2.6666-1.0666 1.3333-4.8 3.3333-8.7999 4-6.1334 1.2-9.0667 5.4667-13.2 5.4667-6.2667 0-10.667-3.6-19.2-3.6m38-12v1.0667c0 4.9333-7.8666 3.7333-10.933 3.4666-3.2-0.2666-6.9333-0.9333-17.733 2.1333"
            />
        </g>
    </g>
</svg>
