<svg
    xmlns="http://www.w3.org/2000/svg"
    aria-label="NTGA"
    role="img"
    viewBox="0 0 113.06 28.919"
>
    <rect
        x="0"
        y="0"
        width="100%"
        height="100%"
        fill="#c80000"
    />
    <g fill="#fff">
        <path d="m4.0068 26.487v-19.655h2.8821l9.5439 14.458v-14.599h2.8821v19.844h-2.5986l-10.016-15.119v15.214z"/>
        <path d="m21.866 6.691h10.347v2.5986h-3.5908v17.198h-2.8348v-17.151l-3.9097-0.0118z"/>
        <path d="m60.914 6.7463-7.7504 19.912h3.207l2.0046-5.747h7.8176l2.0711 5.68h3.341l-7.951-19.845zm1.4537 3.992 2.7057 7.133h-5.6792z"/>
        <path d="m67.696 8.7698h42.333v2.6931h-41.294z"/>
        <path d="m70.058 15.29h39.971v2.6458h-38.932z"/>
        <path d="m72.42 21.668h37.561v2.7876h-36.616z"/>
        <path d="m40.812 16.62 0.09853-1.2e-4c1.1659-2e-3 12.286-0.0158 12.286-7e-3 -0.01588 5.7162-4.6536 10.345-10.373 10.345-5.7291 0-10.373-4.6443-10.373-10.373-1e-6 -5.7291 4.6443-10.373 10.373-10.373 3.956 0 7.3948 2.2144 9.1444 5.4714 0.05179 0.0964-3.7232-0.0318-3.6744 0.0664-3.7504-4.6643-11.88-2.8848-12.43 4.5935-0.2424 3.2948 2.2325 7.836 7.2049 7.6058 2.3795-0.11014 4.8453-1.0141 6.5547-4.6791l-8.7987 4e-3z"/>
        <path d="m3.9737 2.3915v2.6789h106.13v-2.6458z"/>
    </g>
</svg>
