<?xml version="1.0" encoding="UTF-8" standalone="no"?>
<svg
   viewBox="0 0 271.53116 126.88786"
   width="271.53116"
   height="126.88786"
   xmlns="http://www.w3.org/2000/svg"
   xmlns:svg="http://www.w3.org/2000/svg"
>
  <g
     id="logo"
     fill="none"
     stroke-width="5"
     transform="translate(-23.968837,-28.7)">
    <g
       id="circuit-path"
       stroke="#ffffff">
      <path d="M 204.8,82.1 H 99 L 46.6,41.2" />
      <path d="m 233.2,50.6 h -72 l -32.8,31.5 32.5,25.4 h 61.3 l 25.6,19.4" />
      <line
         x1="144.2"
         y1="119.3"
         x2="160.89999"
         y2="107.5" />
    </g>
    <g
       id="circuit-end"
       stroke="#f59f00">
      <circle
         cx="241.3"
         cy="50.599998"
         r="9.1999998" />
      <circle
         cx="254"
         cy="131.5"
         r="9.1999998" />
      <circle
         cx="212.8"
         cy="81.900002"
         r="9.1999998" />
      <circle
         cx="137.89999"
         cy="123.8"
         r="9.1999998" />
    </g>
    <path
       id="anvil"
       stroke="#f59f00"
       d="m 27.5,41.2 h 65.4 l 8.5,-9.7 c 0.2,-0.2 0.5,-0.3 0.8,-0.3 H 292 c 0.5,0 1,0.4 1,1 v 13.3 c 0,0.4 -0.3,0.8 -0.6,0.9 -39.1,15.3 -39.1,74.2 0,89.5 0.4,0.1 0.6,0.5 0.6,0.9 v 14.3 h -55 c -25,-35 -70,-35 -90,0 L 93,153 v -15.9 c 0,-0.5 0.4,-1 1,-1 27.5,-0.8 28.6,-35.9 3.5,-39.7 -3.9,-0.6 -7.8,-1.7 -11.4,-3.3 L 26.8,42.9 c -0.7,-0.6 -0.3,-1.7 0.7,-1.7 z" />
  </g>
</svg>
