<?xml version="1.0" encoding="UTF-8" standalone="no"?>
<svg
   viewBox="0 0 674.80201 182.89999"
   width="674.802"
   height="182.89999"
   xmlns="http://www.w3.org/2000/svg"
   xmlns:svg="http://www.w3.org/2000/svg"
>

<rect
   fill="#002147"
   width="674.80201"
   height="182.89999"
   rx="15"
/>

<g 
   id="logo"
   fill="none"
   stroke-width="5"
>
	<g 
      id="circuit-path"
      stroke="#FFFFFF"
   >
         <path d="M 204.8,82.1 H 99 L 46.6,41.2" />
         <path d="m 233.2,50.6 h -72 l -32.8,31.5 32.5,25.4 h 61.3 l 25.6,19.4" />
         <line x1="144.2" y1="119.3" x2="160.89999" y2="107.5" />
	</g>
	<g
      id="circuit-end"
      stroke="#F59F00"
   >
         <circle
            cx="241.3"
            cy="50.599998"
            r="9.1999998"
         />
         <circle
            cx="254"
            cy="131.5"
            r="9.1999998" 
         />
         <circle
            cx="212.8"
            cy="81.900002"
            r="9.1999998"
         />
         <circle
            cx="137.89999"
            cy="123.8"
            r="9.1999998"
         />
	</g>
   <path
      id="anvil"
      stroke="#F59F00"
      d="m 27.5,41.2 h 65.4 l 8.5,-9.7 c 0.2,-0.2 0.5,-0.3 0.8,-0.3 H 292 c 0.5,0 1,0.4 1,1 v 13.3 c 0,0.4 -0.3,0.8 -0.6,0.9 -39.1,15.3 -39.1,74.2 0,89.5 0.4,0.1 0.6,0.5 0.6,0.9 v 14.3 h -55 c -25,-35 -70,-35 -90,0 L 93,153 v -15.9 c 0,-0.5 0.4,-1 1,-1 27.5,-0.8 28.6,-35.9 3.5,-39.7 -3.9,-0.6 -7.8,-1.7 -11.4,-3.3 L 26.8,42.9 c -0.7,-0.6 -0.3,-1.7 0.7,-1.7 z"
   />
</g>
<g id="wordmark">
	<g fill="#FFFFFF">
		<path d="m 293.6,91.1 c 0,-2.4 0.5,-4.7 1.4,-6.8 0.9,-2.1 2.3,-4 4,-5.5 1.8,-1.6 3.9,-2.8 6.4,-3.7 2.5,-0.9 5.4,-1.3 8.6,-1.3 2.8,0 5.4,0.3 7.7,0.8 2.3,0.6 4.5,1.4 6.5,2.6 l -3.2,5.3 c -0.6,-0.4 -1.3,-0.7 -2.1,-1.1 -0.8,-0.3 -1.6,-0.6 -2.5,-0.8 -0.9,-0.2 -1.8,-0.4 -2.7,-0.5 -0.9,-0.1 -1.9,-0.2 -2.8,-0.2 -2.2,0 -4.2,0.3 -6,0.8 -1.7,0.5 -3.2,1.3 -4.4,2.3 -1.2,1 -2.1,2.2 -2.7,3.5 -0.6,1.4 -0.9,2.9 -0.9,4.5 0,1.7 0.3,3.3 1,4.7 0.7,1.4 1.6,2.6 2.8,3.7 1.2,1 2.7,1.8 4.5,2.4 1.8,0.6 3.8,0.9 6,0.9 1,0 2,-0.1 3,-0.2 1,-0.1 2,-0.3 2.9,-0.6 0.9,-0.3 1.8,-0.6 2.7,-0.9 0.9,-0.4 1.7,-0.8 2.4,-1.2 l 3.2,5.3 c -1.9,1.2 -4,2.1 -6.5,2.8 -2.5,0.7 -5.1,1 -7.8,1 -3.5,0 -6.6,-0.5 -9.3,-1.4 -2.7,-0.9 -4.9,-2.2 -6.7,-3.8 -1.8,-1.6 -3.1,-3.5 -4,-5.7 -1.1,-2.1 -1.5,-4.4 -1.5,-6.9 z" />
		<path d="m 339.2,111.7 c 0.7,0.4 1.4,0.8 2.2,1.2 0.8,0.4 1.6,0.6 2.5,0.8 0.9,0.2 1.7,0.4 2.6,0.5 0.9,0.1 1.8,0.2 2.7,0.2 3,0 5.3,-0.6 6.9,-1.9 1.6,-1.3 2.4,-3.2 2.4,-5.8 v -0.9 c -0.6,0.4 -1.2,0.8 -1.9,1.1 -0.7,0.3 -1.5,0.6 -2.3,0.8 -0.8,0.2 -1.7,0.4 -2.6,0.5 -0.9,0.1 -1.8,0.2 -2.7,0.2 -2,0 -3.7,-0.3 -5.3,-0.9 -1.6,-0.6 -2.9,-1.4 -4,-2.5 -1.1,-1.1 -1.9,-2.5 -2.5,-4.1 -0.6,-1.6 -0.9,-3.5 -0.9,-5.6 V 82.5 h 6.5 v 10.9 c 0,3.1 0.6,5.4 1.8,6.9 1.2,1.5 3.1,2.2 5.7,2.2 1.8,0 3.4,-0.3 4.8,-1 1.4,-0.6 2.5,-1.5 3.4,-2.5 V 82.5 h 6.5 v 23 c 0,2.5 -0.4,4.6 -1.1,6.4 -0.7,1.8 -1.7,3.3 -3.1,4.5 -1.3,1.2 -3,2.1 -4.9,2.7 -1.9,0.6 -4.2,0.9 -6.6,0.9 -2.4,0 -4.7,-0.3 -6.8,-0.8 -2.1,-0.5 -4,-1.2 -5.8,-2.1 z" />
		<path d="m 373.3,72 h 6.5 v 13 c 0.6,-0.4 1.2,-0.8 2,-1.1 0.8,-0.3 1.6,-0.7 2.5,-0.9 0.9,-0.2 1.8,-0.5 2.8,-0.6 1,-0.2 1.9,-0.2 2.9,-0.2 2.2,0 4.2,0.3 6.1,1 1.8,0.6 3.4,1.6 4.7,2.7 1.3,1.1 2.3,2.6 3.1,4.2 0.7,1.6 1.1,3.4 1.1,5.4 0,2.1 -0.4,3.9 -1.2,5.6 -0.8,1.7 -1.8,3.1 -3.2,4.3 -1.4,1.2 -3,2.1 -4.9,2.7 -1.9,0.6 -3.9,1 -6.1,1 -0.9,0 -1.9,-0.1 -2.8,-0.2 -0.9,-0.1 -1.8,-0.3 -2.6,-0.5 -0.8,-0.2 -1.6,-0.5 -2.4,-0.7 -0.7,-0.3 -1.4,-0.6 -2,-0.9 v 1.9 h -6.5 z m 6.5,28.3 c 0.7,0.5 1.4,1 2.1,1.3 0.7,0.3 1.5,0.7 2.2,0.9 0.7,0.2 1.5,0.4 2.3,0.5 0.8,0.1 1.5,0.2 2.3,0.2 1.5,0 2.8,-0.2 4,-0.6 1.2,-0.4 2.1,-1 2.9,-1.7 0.8,-0.7 1.4,-1.5 1.8,-2.5 0.4,-1 0.6,-2 0.6,-3.1 0,-1 -0.2,-2 -0.6,-2.9 -0.4,-0.9 -1,-1.7 -1.8,-2.4 -0.8,-0.7 -1.7,-1.2 -2.8,-1.6 -1.1,-0.4 -2.3,-0.6 -3.7,-0.6 -0.9,0 -1.8,0.1 -2.6,0.3 -0.9,0.2 -1.7,0.4 -2.5,0.7 -0.8,0.3 -1.6,0.7 -2.3,1.1 -0.7,0.4 -1.3,0.9 -1.9,1.5 z" />
		<path d="m 409.7,95.4 c 0,-1.8 0.4,-3.4 1.1,-5 0.7,-1.6 1.8,-3 3.1,-4.3 1.3,-1.3 3,-2.2 5,-2.9 2,-0.7 4.2,-1.1 6.7,-1.1 2.5,0 4.7,0.4 6.7,1.1 2,0.7 3.7,1.8 5.1,3 1.4,1.3 2.4,2.8 3.2,4.5 0.7,1.7 1.1,3.6 1.1,5.6 0,0.2 0,0.5 0,0.8 0,0.3 0,0.5 -0.1,0.8 h -24.5 c 0.3,0.8 0.7,1.5 1.4,2.1 0.6,0.6 1.4,1.2 2.3,1.7 0.9,0.5 2,0.8 3.3,1.1 1.2,0.3 2.6,0.4 4.1,0.4 1.5,0 3,-0.2 4.5,-0.5 1.5,-0.3 2.9,-0.7 4.2,-1.2 l 2.2,5 c -0.8,0.4 -1.7,0.7 -2.6,1 -0.9,0.3 -1.8,0.5 -2.7,0.7 -0.9,0.2 -1.9,0.3 -3,0.5 -1,0.1 -2.1,0.2 -3.3,0.2 -2.9,0 -5.5,-0.4 -7.7,-1.1 -2.2,-0.7 -4,-1.7 -5.5,-2.9 -1.5,-1.2 -2.6,-2.6 -3.3,-4.3 -0.7,-1.7 -1.3,-3.3 -1.3,-5.2 z m 24.9,-2.5 c -0.2,-0.7 -0.6,-1.4 -1.1,-2 -0.5,-0.6 -1.1,-1.2 -1.8,-1.6 -0.7,-0.5 -1.6,-0.8 -2.5,-1.1 -0.9,-0.3 -2,-0.4 -3.2,-0.4 -1.2,0 -2.4,0.1 -3.4,0.4 -1,0.3 -1.9,0.7 -2.7,1.1 -0.8,0.4 -1.4,1 -1.9,1.6 -0.5,0.6 -0.9,1.3 -1.1,2 z" />
		<path d="m 448.5,82.5 h 6.5 v 3.7 c 1.4,-1.1 3,-2 4.5,-2.8 1.5,-0.8 3.2,-1.4 4.8,-1.8 l 1.9,6 c -2.5,0.2 -4.7,0.8 -6.6,1.7 -1.9,0.9 -3.4,2.1 -4.6,3.7 v 15.4 h -6.5 z" />
		<path d="m 472.1,100.5 c 1.8,1.1 3.7,1.8 5.8,2.3 2.1,0.5 4.3,0.7 6.5,0.7 1.5,0 2.7,-0.1 3.7,-0.3 1,-0.2 1.8,-0.5 2.4,-0.8 0.6,-0.3 1,-0.7 1.3,-1.1 0.3,-0.4 0.4,-0.8 0.4,-1.3 0,-0.6 -0.3,-1.1 -0.8,-1.6 -0.5,-0.4 -1.4,-0.7 -2.6,-0.7 -0.6,0 -1.2,0 -1.8,0.1 -0.6,0.1 -1.4,0.2 -2.1,0.2 -0.7,0.1 -1.5,0.2 -2.3,0.2 -0.8,0.1 -1.6,0.1 -2.4,0.1 -1.8,0 -3.3,-0.2 -4.5,-0.6 -1.2,-0.4 -2.2,-0.9 -3,-1.6 -0.8,-0.7 -1.3,-1.4 -1.7,-2.3 -0.4,-0.9 -0.5,-1.9 -0.5,-2.9 0,-1.3 0.3,-2.5 0.9,-3.6 0.6,-1.1 1.5,-2.1 2.6,-2.9 1.1,-0.8 2.5,-1.4 4.1,-1.9 1.6,-0.5 3.4,-0.7 5.4,-0.7 1,0 2.1,0.1 3.3,0.2 1.1,0.1 2.3,0.3 3.4,0.5 1.1,0.2 2.2,0.4 3.2,0.7 1,0.3 1.9,0.6 2.7,0.9 l -2,5.1 c -1.7,-0.6 -3.3,-1.1 -5,-1.5 -1.6,-0.4 -3.3,-0.5 -5.1,-0.5 -1.2,0 -2.2,0.1 -3.1,0.3 -0.8,0.2 -1.5,0.4 -2.1,0.7 -0.5,0.3 -0.9,0.6 -1.2,1 -0.2,0.4 -0.4,0.8 -0.4,1.2 0,0.3 0.1,0.6 0.2,0.8 0.1,0.2 0.3,0.5 0.6,0.6 0.3,0.2 0.7,0.3 1.1,0.4 0.5,0.1 1,0.1 1.7,0.1 0.6,0 1.3,0 2,-0.1 0.7,-0.1 1.4,-0.1 2.2,-0.2 0.7,-0.1 1.5,-0.2 2.3,-0.2 0.8,-0.1 1.6,-0.1 2.4,-0.1 1.6,0 2.9,0.2 4.1,0.5 1.2,0.4 2.1,0.9 2.9,1.5 0.8,0.6 1.3,1.4 1.7,2.3 0.4,0.9 0.6,1.9 0.6,2.9 0,1.4 -0.3,2.6 -0.9,3.8 -0.6,1.2 -1.6,2.2 -2.8,3 -1.2,0.9 -2.8,1.5 -4.6,2 -1.9,0.5 -4,0.7 -6.4,0.7 -1.5,0 -2.9,-0.1 -4.3,-0.3 -1.4,-0.2 -2.7,-0.4 -4,-0.7 -1.3,-0.3 -2.4,-0.7 -3.5,-1.1 -1.1,-0.4 -2.1,-0.9 -3,-1.4 z" />
		<path d="m 505,82.5 h 6.5 v 2.2 c 1.6,-1 3.2,-1.7 4.8,-2.1 1.5,-0.4 3.1,-0.6 4.5,-0.6 2.1,0 4,0.3 5.7,1 1.7,0.7 3.2,1.7 4.4,3 1,-0.7 1.9,-1.4 2.8,-1.9 0.9,-0.5 1.8,-0.9 2.8,-1.2 0.9,-0.3 1.9,-0.5 2.8,-0.7 1,-0.1 1.9,-0.2 2.9,-0.2 2.1,0 4,0.3 5.8,0.9 1.7,0.6 3.2,1.4 4.4,2.6 1.2,1.1 2.2,2.6 2.8,4.3 0.7,1.7 1,3.7 1,5.9 v 12.7 h -6.5 V 96.8 c 0,-1.4 -0.2,-2.7 -0.6,-3.8 -0.4,-1.1 -1,-2.1 -1.7,-2.8 -0.7,-0.8 -1.6,-1.4 -2.6,-1.8 -1,-0.4 -2.1,-0.6 -3.3,-0.6 -0.7,0 -1.3,0.1 -2,0.2 -0.7,0.1 -1.4,0.3 -2,0.6 -0.7,0.3 -1.3,0.6 -1.8,1 -0.6,0.4 -1.1,0.9 -1.5,1.4 v 17.5 h -6.5 V 96.8 c 0,-1.4 -0.2,-2.7 -0.6,-3.8 -0.4,-1.1 -1,-2.1 -1.7,-2.8 -0.7,-0.8 -1.6,-1.4 -2.6,-1.8 -1,-0.4 -2.1,-0.6 -3.4,-0.6 -0.7,0 -1.5,0.1 -2.3,0.2 -0.8,0.2 -1.5,0.4 -2.2,0.6 -0.7,0.3 -1.3,0.6 -2,1 -0.6,0.4 -1.2,0.8 -1.6,1.3 v 17.5 H 505 Z" />
		<path d="m 567.9,79 c -0.6,0 -1.2,-0.1 -1.7,-0.3 -0.5,-0.2 -1,-0.4 -1.3,-0.7 -0.4,-0.3 -0.6,-0.7 -0.8,-1.1 -0.2,-0.4 -0.3,-0.9 -0.3,-1.3 0,-0.5 0.1,-0.9 0.3,-1.4 0.2,-0.4 0.5,-0.8 0.8,-1.1 0.4,-0.3 0.8,-0.6 1.3,-0.7 0.5,-0.2 1.1,-0.3 1.7,-0.3 0.7,0 1.2,0.1 1.8,0.3 0.5,0.2 1,0.4 1.3,0.7 0.4,0.3 0.6,0.7 0.8,1.1 0.2,0.4 0.3,0.9 0.3,1.4 0,0.5 -0.1,0.9 -0.3,1.3 -0.2,0.4 -0.5,0.8 -0.8,1.1 -0.4,0.3 -0.8,0.6 -1.3,0.7 -0.5,0.2 -1.1,0.3 -1.8,0.3 z m -3.2,3.5 h 6.5 v 25.9 h -6.5 z" />
		<path d="m 583.4,87.4 h -6.3 v -4.9 h 6.3 v -8.1 h 6.5 v 8.1 h 6.3 v 4.9 h -6.3 v 21 h -6.5 z" />
		<path d="m 602,72 h 6.5 v 12.5 c 1.4,-0.7 2.9,-1.3 4.6,-1.8 1.7,-0.4 3.4,-0.7 5.3,-0.7 2.1,0 4.1,0.3 5.8,0.9 1.7,0.6 3.2,1.5 4.3,2.7 1.2,1.2 2.1,2.6 2.7,4.3 0.6,1.7 1,3.6 1,5.7 v 12.7 h -6.5 V 96 c 0,-1.2 -0.2,-2.4 -0.6,-3.4 -0.4,-1 -1,-1.9 -1.7,-2.6 -0.7,-0.7 -1.7,-1.3 -2.8,-1.7 -1.1,-0.4 -2.3,-0.6 -3.7,-0.6 -1.7,0 -3.2,0.3 -4.6,0.8 -1.4,0.5 -2.7,1.2 -3.7,2 v 18 H 602 Z" />
	</g>
	<circle
      fill="#F59F00"
      cx="643.29999"
      cy="104.5"
      r="4.5999999"
   />
</g>
</svg>
