<svg viewBox="0 0 271.53116 126.88786" width="271.53116" height="126.88786" xmlns="http://www.w3.org/2000/svg" xmlns:svg="http://www.w3.org/2000/svg"><g id="logo" fill="none" stroke-width="5" transform="translate(-23.968837,-28.7)"><g id="circuit-path" stroke="#fff"><path d="M204.8 82.1H99L46.6 41.2"/><path d="m233.2 50.6h-72l-32.8 31.5 32.5 25.4h61.3l25.6 19.4"/><line x1="144.2" y1="119.3" x2="160.89999" y2="107.5"/></g><g id="circuit-end" stroke="#f59f00"><circle cx="241.3" cy="50.599998" r="9.1999998"/><circle cx="254" cy="131.5" r="9.1999998"/><circle cx="212.8" cy="81.900002" r="9.1999998"/><circle cx="137.89999" cy="123.8" r="9.1999998"/></g><path id="anvil" stroke="#f59f00" d="m27.5 41.2h65.4l8.5-9.7c.2-.2.5-.3.8-.3H292c.5.0 1 .4 1 1v13.3c0 .4-.3.8-.6.9-39.1 15.3-39.1 74.2.0 89.5.4.1.6.5.6.9v14.3h-55c-25-35-70-35-90 0L93 153v-15.9c0-.5.4-1 1-1 27.5-.8 28.6-35.9 3.5-39.7-3.9-.6-7.8-1.7-11.4-3.3L26.8 42.9c-.7-.6-.3-1.7.7-1.7z"/></g></svg>