<svg xmlns="http://www.w3.org/2000/svg" aria-label="ADO.NET" role="img" viewBox="0 0 68.14 68.14"><g fill="#02579a"><path d="M5.52 37.05c3.36-6.14 8.2-9.75 17.67-5.47l2.48-2.68C22.34 24.26 6.83 17.5.49 31.38c.84 1.67 2 3.41 5.03 5.67z"/><path d="M.12 37.5c2.71 2.8 8.92 17.02 33.93-13.1.13-.16 8.3-7.36 16.46-7.16 12.94.3 16.29 8.25 17.5 17.9-.89-4.92-3.4-7.98-7.82-8.88C48.24 23.7 36.3 46.24 17.97 50 7.72 50.7 2.84 45.33.12 37.5z"/><path d="M34.77 45.38l2.98-2.32c11.75 8.04 21.25 3 16.63-13.8a7.8 7.8.0 015.6.14c20.13 10.75-12.45 31.39-25.2 15.98z"/></g></svg>