<svg xmlns="http://www.w3.org/2000/svg" aria-label="Autofac" role="img" viewBox="0 0 268.1 270.6"><defs><linearGradient id="linear-radient" x1="63" y1="160.3" x2="63" y2="283" gradientTransform="rotate(-18.5 -262.3 -81.3)" gradientUnits="userSpaceOnUse"><stop offset="0" stop-color="#04feb2"/><stop offset="1" stop-color="#04fe42"/></linearGradient><style>.cls-2{fill:#049542}.cls-3{fill:#04fe42}.cls-4{fill:#04feb2}</style></defs><path d="M134.5 3.4C62.7 3.4 4.5 63.2 4.5 137a134.8 134.8.0 0038.8 95l47.3-65.7h.1v96.3l.6.2 69.4-96.5h.1v97.3l70-97.3h.2v60.2a135 135 0 0033.6-89.6c0-73.6-58.3-133.4-130-133.4z" opacity=".1" fill="#fff"/><path class="cls-2" d="M230 182.8a5.6 5.6.0 011.6-3l.5-.8a7.9 7.9.0 01-2.8-6.7 5.8 5.8.0 011.7-3 6 6 0 00-1-.3c-1-.2-3.4-.1-3.4-1.5a1.7 1.7.0 01.5-1.4 3.9 3.9.0 012.4-.7h1.5a6.5 6.5.0 012.4.7 3.9 3.9.0 00.1-3.9c.7-4 12-8.5 18 .2a12 12 0 01-3.2 13.9 9.5 9.5.0 01.3 1c.3 1.2.0 3.8-1.8 3.1-.7-.2-1-1.2-1.3-2a19.9 19.9.0 01-2.5 1.4 8.4 8.4.0 01-.4 3 4.6 4.6.0 01-1.9 2.8c-.9.5-2.6.3-2.6-1 0-1.1.8-2 .8-3v-.6a6.5 6.5.0 01-1.9.0l-1.2-.2-.7 1c-.8 1-2.2 2.4-3.6 2.3a1.4 1.4.0 01-1.4-1.3z"/><path class="cls-3" d="M250.6 173.5z"/><path class="cls-3" d="M250.5 173.7l-.4.6z"/><path class="cls-3" d="M251 172.8l.4-.7-.4.7z"/><path class="cls-3" d="M251.5 172l.2-.7-.2.7z"/><path class="cls-3" d="M229.6 171.2a6 6 0 01.5-.8 6 6 0 00-.5.8z"/><path class="cls-3" d="M230.6 165.4h.4z"/><path class="cls-3" d="M226.9 166.4a1.7 1.7.0 01.2-.3 3.9 3.9.0 012.4-.7 3.4 3.4.0 00-2.6 1z"/><path class="cls-3" d="M234 164.2z"/><path class="cls-3" d="M229.5 165.4h1-1z"/><path class="cls-3" d="M251.8 171.2a11.3 11.3.0 00.4-1.7 11.3 11.3.0 01-.4 1.7z"/><path class="cls-3" d="M252.2 164.6a12.6 12.6.0 01.3 2 12.6 12.6.0 00-.3-2z"/><path class="cls-3" d="M252.5 166.7V166.6z"/><path class="cls-3" d="M251.5 162.4z"/><path class="cls-3" d="M251.9 163.6l.3.9-.3-1z"/><path class="cls-3" d="M233.5 162.2c.7-3.9 11.9-8.5 18 .2a26.2 26.2.0 00-6.1-8.7c-11-9.9-36-8.2-36-8.2l-1 5.7s13.3 1.8 21.7 7.6a10 10 0 013.4 3.4z"/><path class="cls-3" d="M252.3 169.4l.1-.8-.1.8z"/><path class="cls-3" d="M252.4 168.5v-.9 1z"/><path class="cls-3" d="M226.6 167a1.7 1.7.0 01.1-.3 1.7 1.7.0 000 .3z"/><path class="cls-3" d="M235.8 180.8z"/><path class="cls-3" d="M246.8 180.5a1.2 1.2.0 01-.5-.4 1.2 1.2.0 00.5.4z"/><path class="cls-3" d="M246.2 180a5.2 5.2.0 01-.6-1.2 5.2 5.2.0 00.6 1.1z"/><path class="cls-3" d="M230 182.8a2.6 2.6.0 01.2-.8 2.6 2.6.0 00-.1.8 1.2 1.2.0 00.5 1 1.2 1.2.0 01-.5-1z"/><path class="cls-3" d="M249 175.6l.4-.5z"/><path class="cls-3" d="M229.4 172a2.5 2.5.0 000 .3 8.7 8.7.0 000 .9 8.7 8.7.0 010-1 2.5 2.5.0 010-.3z"/><path class="cls-3" d="M248.3 176.3l.6-.6z"/><path class="cls-3" d="M249.6 175l.5-.6-.5.6z"/><path class="cls-3" d="M232 179c0 .3-.2.6-.4.8l-.5.7.5-.7.5-.8z"/><path class="cls-3" d="M230.2 176.7a7.6 7.6.0 001.2 1.6 7.6 7.6.0 01-1.2-1.6z"/><path class="cls-3" d="M233.8 165v.2z"/><path class="cls-3" d="M233.6 165.5v.1z"/><path class="cls-3" d="M230.4 181.6a6 6 0 01.4-.8 6 6 0 00-.4.8z"/><path class="cls-3" d="M226.6 167.5a2.1 2.1.0 010-.4 2.1 2.1.0 000 .4z"/><path class="cls-3" d="M233.9 164.7z"/><path class="cls-3" d="M226.7 166.7a1.6 1.6.0 01.2-.3 1.6 1.6.0 00-.2.3z"/><path class="cls-2" d="M238.6 153.6a9.8 9.8.0 016.6.0l.2.1 2.4 2.6c-2-2.3-5.5-3.1-8.9-2a8.4 8.4.0 00-5.7 7.4 7.4 7.4.0 00-.7-1 9.3 9.3.0 016-7.1z"/><path class="cls-2" d="M235.4 149.4a8 8 0 011.9-.4l2.4 1a7.2 7.2.0 00-8.5 9.2l.2.6-1.2-1a8 8 0 015.3-9.4z"/><path class="cls-2" d="M230.6 147.3l.5-.1 2.2.5a7.2 7.2.0 00-7 8.9l-1-.5a8 8 0 015.3-8.8z"/><path class="cls-2" d="M225.4 146.1l1.5.3a7.2 7.2.0 00-4.7 8.4l-1-.4a8 8 0 014.2-8.3z"/><path class="cls-2" d="M220 145.6h1.2a7.2 7.2.0 00-3.2 7.8l-.9-.3a8 8 0 012.8-7.5z"/><path class="cls-2" d="M214.3 145.4h1.1a7.2 7.2.0 00-2 6.7l-1-.2a8 8 0 011.9-6.5z"/><path class="cls-2" d="M55 130.3 36.2 74.1a5.4 5.4.0 10-4.9 1.6L50.1 132c-6.2 4-8.5 14.3-5 24.8 3.9 11.6 13.5 18.8 21.5 16.2s11.2-14.3 7.4-26c-3.5-10.3-11.6-17.2-19-16.7z"/><path class="cls-2" d="M233 70.8l-18.8-56.3a5.4 5.4.0 10-4.8 1.6l18.8 56.3c-6.2 4-8.5 14.3-5 24.8 3.9 11.6 13.5 18.8 21.5 16.2S255.9 99 252 87.5c-3.5-10.4-11.5-17.3-19-16.7z"/><path class="cls-2" d="M143.2 226.5a6.7 6.7.0 001.2 1.8c1.3 1.2 3.2 2.2 12.1-.7s12.5-4.5 12.5-5.8a9.6 9.6.0 00-1.4-3c-10.5-6.5-19.4 1.2-24.4 7.7z"/><path class="cls-3" d="M161.7 207.8a42.2 42.2.0 01-2.1-14.4l-22.8-2.5a38 38 0 00.8 20.5c2.6 8 4.3 12.7 5.6 15.1 5-6.5 13.9-14.2 24.4-7.6a9.6 9.6.0 011.4 2.9c0 1.1-2.7 2.6-9.3 4.8 6.7-2.2 9.3-3.7 9.4-4.8.0-1.4-5.8-9.2-7.4-14z"/><path class="cls-2" d="M216.2 202.1a6.7 6.7.0 01.1 2.2c-.3 1.6-1.2 3.6-10.1 6.7s-12.7 3.9-13.5 2.8a9.6 9.6.0 01-.6-3.1c4.5-11.6 16.2-10.8 24.1-8.6z"/><path class="cls-3" d="M192.7 213.8a9.6 9.6.0 01-.6-3.1c4.5-11.6 16.1-10.8 24-8.6-.4-2.7-1.8-7.5-4.5-15.5a38 38 0 00-11.8-16.8l-16.6 15.7a42.2 42.2.0 017 12.8c1.6 4.8 1.7 14.5 2.5 15.5s3.7.5 10.4-1.7c-6.7 2.2-9.7 2.6-10.4 1.7z"/><path class="cls-2" d="M152.1 213a14 14 0 0112.5.8l-.8-1.5a15.3 15.3.0 00-12-.2 19 19 0 00-10.7 9.6l.4 1a18.3 18.3.0 0110.6-9.8z"/><path class="cls-2" d="M150.2 207.3c6.2-1.3 10.2.4 11.8 1.3l-.3-.8-.1-.4c-2-1-6-2-11.6-1a18.2 18.2.0 00-11.6 7.5l.4 1a17.5 17.5.0 0111.4-7.6z"/><path class="cls-2" d="M148.3 201.2a16.8 16.8.0 0112.3 2.8l-.2-1.2a17.8 17.8.0 00-12.2-2.5c-6.8.9-10.6 4-12 5.3l.2 1c.7-.8 4.5-4.5 12-5.4z"/><path class="cls-2" d="M148.8 196a29.7 29.7.0 0111 3l-.1-1a31 31 0 00-10.9-2.7 23 23 0 00-13 2.8v1a22.4 22.4.0 0113-3z"/><path class="cls-2" d="M200.9 196.6a14 14 0 00-9.5 8.2l-.2-1.6c1.2-2.4 3.9-5.7 9.4-7.4A19 19 0 01215 197l.4 1.2a18.3 18.3.0 00-14.4-1.6z"/><path class="cls-2" d="M199 191c-5.7 2.7-7.9 6.4-8.6 8l-.3-.8v-.3c1-2 3.4-5.3 8.6-7.7a18.2 18.2.0 0113.7-1l.4 1a17.5 17.5.0 00-13.7.7z"/><path class="cls-2" d="M196.8 185a16.8 16.8.0 00-8 9.6l-.6-1.1a17.8 17.8.0 018.2-9.3c6-3.4 10.8-3.3 12.8-3l.5 1c-1-.3-6.3-1-12.9 2.8z"/><path class="cls-2" d="M193.4 181.1a29.7 29.7.0 00-7 9l-.5-.9a31 31 0 017-8.7 23 23 0 0112.1-5.6l.6.8a22.4 22.4.0 00-12.2 5.4z"/><path class="cls-2" d="M210.4 143.2a56.5 56.5.0 01-98 32.8"/><path class="cls-4" d="M160.2 160l10.6 31.8 1.3-.4 1.2-.4-10.7-31.8z"/><path class="cls-4" d="M153.3 162.3l10.4 31.3c1.7-.3 3.4-.7 5-1.2l-10.6-31.7z"/><path class="cls-4" d="M164.7 158.5l10.6 31.8q2.4-1 4.7-2.2L169.5 157z"/><path fill="url(#linear-radient)" d="M224.3 91.4C210 49 164 26.3 121.5 40.5S56 100.6 70.1 143l13 38.8s23.6-1.9 78.9-20.4 75.3-31.2 75.3-31.2z"/><circle cx="142.8" cy="105" r="41" transform="rotate(-18.5 142.9 105)" fill="#fff"/><path class="cls-2" d="M129.8 66a41 41 0 11-25.9 52 41 41 0 0126-52m-1.5-4a45.3 45.3.0 1057.4 28.6A45.4 45.4.0 00128.4 62z"/><circle class="cls-2" cx="159.8" cy="154.9" transform="rotate(-18.5 159.8 154.9)" r="3.4"/><circle class="cls-2" cx="166.6" cy="150.8" transform="rotate(-18.5 166.6 150.8)" r="2.1"/><circle class="cls-2" cx="151.9" cy="155.7" transform="rotate(-18.5 152 155.7)" r="2.1"/><path class="cls-2" d="M162.9 98.8a20.6 20.6.0 10-28.7 25.1l4-12 4.7 14.1 5.8-17.6 4.8 14.2 5.7-17.8 3 8.9a20.6 20.6.0 00.7-14.9zm-14.5 2a6.3 6.3.0 114-7.8 6.3 6.3.0 01-4 7.9z"/><path class="cls-2" d="M120.3 219.6a5.6 5.6.0 00-3-1.6l-1-.3a7.9 7.9.0 00-1.7-7 5.8 5.8.0 00-3.1-1.4 6 6 0 01.6-.9c.6-.7 2.6-2 1.8-3.2a1.7 1.7.0 00-1.3-.8 3.9 3.9.0 00-2.3.9l-.8.5-.1.1-.3.3a6.5 6.5.0 00-1.5 2 3.9 3.9.0 01-2.4-3c-3-2.7-14.6.4-14.3 11a12 12 0 0011 9.2 9.5 9.5.0 00.3 1c.5 1 2.3 3 3.3 1.4.4-.6.1-1.6-.1-2.4a19.9 19.9.0 002.8-.4 8.4 8.4.0 002.1 2.2 4.6 4.6.0 003.2 1c1-.1 2.3-1.3 1.5-2.4-.7-.9-1.8-1-2.5-2l-.3-.3a6.5 6.5.0 001.5-1.1l.8-1 1.2.3c1.2.3 3.2.6 4.2-.3a1.4 1.4.0 00.4-1.8z"/><path class="cls-3" d="M107 207.9h.2z"/><path class="cls-3" d="M109 206.2l.4-.3z"/><path class="cls-3" d="M105.2 205.1a10 10 0 01.6-4.7 60 60 0 0112.8-19.2l-4.3-4S93.4 191 90.5 205.5a26.2 26.2.0 00.4 10.6c-.3-10.6 11.4-13.7 14.3-11z"/><path class="cls-3" d="M116.4 217.7a7.7 7.7.0 00.1-3 7.7 7.7.0 01-.1 3l1 .3.3.1h-.4l-1-.4z"/><path class="cls-3" d="M106.7 207.6v.1z"/><path class="cls-3" d="M100.4 225l.3.2z"/><path class="cls-3" d="M114.5 221.4l-.8 1a5 5 0 01-.6.6 5 5 0 00.6-.6l.8-1z"/><path class="cls-3" d="M105.7 206.6z"/><path class="cls-3" d="M106.4 207.4z"/><path class="cls-3" d="M110.2 205.3l-.8.6.8-.6z"/><path class="cls-3" d="M113.5 207a3.5 3.5.0 00.3-.4 3.5 3.5.0 01-.3.4z"/><path class="cls-3" d="M113 207.6a7.8 7.8.0 00.5-.6 7.7 7.7.0 01-.6.6z"/><path class="cls-3" d="M120.3 219.6a1.2 1.2.0 01.2.5 1.2 1.2.0 00-.2-.5z"/><path class="cls-3" d="M114 206.3a1.1 1.1.0 000-.9 1.1 1.1.0 010 .9z"/><path class="cls-3" d="M99.3 224.8h.2z"/><path class="cls-3" d="M112.7 207.8l-.3.3z"/><path class="cls-3" d="M110.3 205.3a3.9 3.9.0 012.3-.9 1.7 1.7.0 01.4.1 3.4 3.4.0 00-2.7.8z"/><path class="cls-3" d="M113.3 204.6a1.6 1.6.0 00-.3-.1 1.6 1.6.0 01.3.1z"/><path class="cls-3" d="M113.5 204.8a1.7 1.7.0 00-.2-.1 1.7 1.7.0 01.3.1z"/><path class="cls-3" d="M113.6 204.9a2.1 2.1.0 01.3.3 2.1 2.1.0 00-.3-.3z"/><path class="cls-3" d="M106 207z"/><path class="cls-3" d="M113.7 224.8l-.6-.4.6.4z"/><path class="cls-3" d="M113.5 228.2a1.8 1.8.0 00.3-.1 1.8 1.8.0 01-.3.0z"/><path class="cls-3" d="M104.9 228.3a1.3 1.3.0 00.7-.6 1.4 1.4.0 00.1-.8 1.4 1.4.0 01-.1.8 1.3 1.3.0 01-.7.6z"/><path class="cls-3" d="M105.7 227a4.3 4.3.0 00-.2-1 4.3 4.3.0 01.2 1z"/><path class="cls-3" d="M113.7 224.8a4 4 0 011.3 1 1.2 1.2.0 010 1.6 1.2 1.2.0 000-1.6 4 4 0 00-1.3-1z"/><path class="cls-3" d="M108.2 225a19.9 19.9.0 01-2.8.4 19.9 19.9.0 002.8-.5z"/><path class="cls-3" d="M120.4 220.8a1.4 1.4.0 00.1-.5 1.4 1.4.0 010 .5z"/><path class="cls-3" d="M120 221.5a1.9 1.9.0 00.3-.4 1.9 1.9.0 01-.4.4z"/><path class="cls-3" d="M120 221.5a2.2 2.2.0 01-1 .4 2.2 2.2.0 001-.4z"/><path class="cls-3" d="M91 216.5l-.1-.3.1.3z"/><path class="cls-3" d="M93.7 221.3l.2.3z"/><path class="cls-3" d="M104.9 228.3a1 1 0 01-.2.0 1 1 0 00.2.0z"/><path class="cls-3" d="M95.7 223.1l.2.2z"/><path class="cls-3" d="M96.9 223.8l.2.2z"/><path class="cls-3" d="M94.7 222.4l.3.2z"/><path class="cls-3" d="M98 224.3l.2.2z"/><path class="cls-3" d="M92.2 219.3l-.1-.3z"/><path class="cls-3" d="M93 220.6l-.2-.3z"/><path class="cls-3" d="M91.6 218l-.2-.5z"/><path class="cls-2" d="M95.9 201.3a9.8 9.8.0 00-5.3 4v.2l-.4 3.6c.2-3.2 2.5-5.8 6-7a8.4 8.4.0 019 2.5 7.4 7.4.0 010-1.2 9.3 9.3.0 00-9.3-2z"/><path class="cls-2" d="M95.9 196.1a8 8 0 00-1.7.8 32 32 0 00-1.3 2.3 7.2 7.2.0 0112.4 2.2l.1.6.4-1.5a8 8 0 00-9.9-4.4z"/><path class="cls-2" d="M98.5 191.5l-.5.2-1.4 1.8a7.2 7.2.0 0111 2.8l.5-1a8 8 0 00-9.6-3.8z"/><path class="cls-2" d="M102 187.5l-1 1a7.2 7.2.0 018.8 4l.5-1a8 8 0 00-8.3-4z"/><path class="cls-2" d="M106 183.7l-1 .9a7.2 7.2.0 017.2 4.2l.6-.8a8 8 0 00-6.8-4.3z"/><path class="cls-2" d="M110.4 180.1l-1 .8a7.2 7.2.0 015.8 4l.6-.6a8 8 0 00-5.4-4.2z"/><path fill="none" d="M-46.1 39.4 255-61.3l92.6 276.9L46.5 316.3z"/></svg>