<svg xmlns="http://www.w3.org/2000/svg" aria-label=".EF Core" role="img" viewBox="0 0 12.732276 12.732276"><rect fill="#68217a" width="100%" height="100%" x="0" y="0"/><circle fill="#40ccf4" cx="4.6886563" cy="9.051445" r=".9343099"/><g fill="#fff"><path d="m5.30455 11.828748c.47724-.09754.93117-.326252 1.30053-.655266l.10438-.09298-.10963-.110912-.10962-.110911-.0561.04553c-.0309.02504-.11724.09562-.19191.156849-.18808.154193-.59643.352359-.87803.426089-.19748.05171-.28194.06087-.56828.06165-.37899.001-.54261-.0274-.87421-.151956C3.20802 11.128781 2.66303 10.520528 2.46065 9.766232 2.40455 9.557165 2.39845 9.494512 2.39725 9.117307 2.39625 8.759787 2.40325 8.670545 2.44745 8.496268 2.64283 7.723932 3.20193 7.099695 3.93935 6.830569 4.2513 6.716722 4.42592 6.687212 4.78428 6.687775c.27105 427e-6.36144.01013.5468.05868.41548.108836.75651.286073 1.03882.539894l.12033.108191L6.58823 7.28317C6.64213 7.22192 6.68623 7.165327 6.68623 7.157415c0-.03064-.26293-.245742-.44723-.365875C5.60895 6.380855 4.79894 6.254344 4.05667 6.450696 3.04714 6.717749 2.29805 7.532221 2.08999 8.589035c-.0542.275116-.0532.829014.002 1.084959.0822.381577.22756.730588.43132 1.035302.14665.219321.55784.612355.79223.757256.58934.364336 1.32399.498109 1.98904.362186zm4.59704-1.382182c.0845-.03143.20188-.08547.26095-.120094l.1074-.06294v-.161389c0-.08876-.006-.16139-.0129-.16139-.007.0-.0827.04213-.16808.09361-.39895.24062-.8661.25896-1.16068.04557C8.74611 9.947972 8.61547 9.686264 8.58544 9.393162L8.57024 9.244889h.934.93401L10.42145 9.008013C10.38885 8.548784 10.28638 8.285776 10.05726 8.073649 9.89387 7.922383 9.72703 7.855123 9.47067 7.83717 8.99518 7.80387 8.57688 8.060289 8.36614 8.514237 8.25508 8.753468 8.22871 8.886464 8.22871 9.207528c0 .653879.27123 1.108186.75747 1.268757.20305.06706.69859.05097.91537-.02972zM8.60237 8.850974C8.67357 8.53429 8.83939 8.30487 9.07538 8.196717c.0918-.04205.15716-.0532.31314-.05338.17536-209e-6.21088.0074.32121.06848.0764.04234.15123.108221.19488.171664.0832.120913.15657.340794.15657.469149V8.94334H9.3214 8.58161zM7.0287 9.679803C7.0392 8.826335 7.0459 8.772784 7.17247 8.513993 7.43589 8.208307 7.6737 8.102894 7.97362 8.248685L7.96462 7.866997C7.91872 7.861897 7.85645 7.853777 7.70587 7.853487 7.43395 7.852961 7.22698 7.990905 7.07989 8.270687l-.0549.104379L7.02399 8.137314 7.02299 7.899561H6.84902 6.67506v1.287341 1.287341h.17211.1721z"/><path d="M3.19093 1.060334H6.21828v.545179H3.83874V3.022984H6.1189v.545178H3.83874v1.73496H6.276V5.8483H3.19093z"/><path d="m7.35054 1.060334h2.76497v.547841h-2.114v1.417953h1.9078v.547841H8.00151V5.871687H7.35054z"/></g></svg>