<svg xmlns="http://www.w3.org/2000/svg" aria-label="Inkscape" role="img" viewBox="0 0 348.08665 343.64578"><path stroke="#fff" stroke-width="6" d="M142.50267 14.626129 16.216674 143.85453c-42.6686 52.84 29.038 46.692 59.778 61.911 11.026 11.271-42.265 19.591-31.238 30.871 11.027 11.271 66.676996 21.715 77.722996 32.986 11.027 11.272-22.570996 23.229-11.544 34.5 11.027 11.271 36.53.592 41.306 26.613 3.403 18.594 45.959 7.99 66.771-7.239 11.027-11.28-21.094-10.218-10.068-21.489 27.421-28.042 52.953-10.19 62.335-38.288 4.634-13.885-40.366-21.405-29.32-32.676 31.726-18.528 141.383-30.589 89.351-82.621L200.40967 14.626129c-16.009-15.36976965-42.725-15.53897965-57.907.0zm145.058 249.093401c0 6.411 47.238 10.613 47.238-1.514-6.731-19.477-41.654-18.161-47.238 1.514zm-212.787996 34.067c11.186 9.673 28.463996-2.406 33.643996-15.905-10.838996-14.402-51.410996.517-33.643996 15.905zm206.865996-20.897c-14.42 12.935 1.617 26.058 15.83 17.701 3.168-3.215-.084-14.486-15.83-17.701z"/><path fill="#fff" d="m112.27967 212.75953c3.375 2.096 54.42 12.465 66.894 14.533 4.324.912 1.26 5.368-4.7 8.376-13.443 3.572-78.644-22.909-62.194-22.909z"/><path fill="#fff" d="m192.77667 23.688129 49.963 50.7437c4.738 4.8412 4.672 14.2229 2.021 16.9208l-24.808-19.8443-4.879 29.385801-20.728-10.942101-33.193 20.972501-10.989-44.210501-17.832 30.8523h-27.262c-11.111.0-12.418-14.1007-2.322-24.1967 17.636-19.036 37.875-38.4385 48.873-49.6815 11.055-11.29933 30.317-10.97971 41.156.0z"/></svg>