<svg xmlns="http://www.w3.org/2000/svg" aria-label="MySQL" role="img" viewBox="-7.929 -7.929 29.78 29.318"><path fill="#00758f" d="M-6.163-7.927c-.71-.01-1.327.257-1.646 1.042-.547 1.32.81 2.62 1.277 3.29.344.467.79.996 1.032 1.524.142.345.183.712.325 1.077.324.893.627 1.889 1.053 2.723.222.426.465.874.749 1.258.163.225.446.325.507.691-.283.406-.305 1.015-.467 1.524-.729 2.295-.446 5.14.588 6.825.323.508 1.094 1.625 2.128 1.198.912-.365.71-1.523.972-2.538.06-.245.02-.406.142-.568v.04c.283.569.568 1.116.83 1.687.63.994 1.723 2.03 2.635 2.72.485.367.87.995 1.478 1.22v-.062H5.4c-.122-.182-.304-.264-.466-.405-.365-.366-.769-.813-1.053-1.22-.85-1.136-1.601-2.396-2.268-3.696-.326-.632-.609-1.321-.872-1.95-.121-.243-.122-.61-.325-.731-.304.446-.749.832-.971 1.379-.385.874-.426 1.95-.569 3.068-.08.021-.04.0-.08.04-.648-.162-.87-.832-1.114-1.4-.608-1.444-.71-3.76-.182-5.425.14-.425.75-1.766.506-2.173-.122-.387-.527-.609-.75-.915a8.054 8.054.0 01-.728-1.3C-3.96-.14-4.203-1.4-4.728-2.538c-.243-.529-.67-1.077-1.013-1.564-.386-.548-.81-.934-1.115-1.584-.1-.223-.242-.59-.081-.833.04-.162.122-.223.284-.264.262-.224 1.012.06 1.275.182.75.304 1.378.59 2.005 1.015.284.204.588.59.952.692h.427c.648.141 1.378.04 1.986.223 1.073.345 2.045.853 2.917 1.401a18.007 18.007.0 016.319 6.947c.243.467.346.893.568 1.38.426.997.953 2.013 1.378 2.987.425.955.831 1.93 1.44 2.722.302.426 1.518.65 2.065.873.404.182 1.033.345 1.398.568.689.426 1.376.914 2.025 1.382.323.244 1.336.751 1.397 1.158-1.62-.04-2.876.122-3.93.57-.303.12-.79.12-.83.507.163.162.182.426.325.65.242.407.667.954 1.053 1.24.426.325.85.648 1.297.933.79.49 1.681.773 2.45 1.26.447.284.891.65 1.338.955.222.162.363.427.647.527v-.062c-.142-.182-.182-.446-.323-.65-.202-.202-.405-.386-.608-.588a9.674 9.674.0 00-2.106-2.051c-.65-.448-2.068-1.058-2.33-1.807l-.042-.041c.446-.042.974-.204 1.4-.328.687-.182 1.315-.14 2.024-.323.325-.082.65-.184.975-.284v-.184c-.367-.365-.629-.853-1.013-1.198-1.032-.893-2.168-1.766-3.343-2.499-.63-.406-1.44-.669-2.108-1.015-.242-.122-.647-.182-.79-.386-.364-.447-.568-1.035-.83-1.564a50.647 50.647.0 01-1.662-3.535c-.364-.792-.587-1.583-1.033-2.315C7.972-.895 5.704-2.986 2.22-5.038c-.75-.427-1.64-.61-2.592-.833-.507-.021-1.013-.061-1.52-.081-.324-.143-.65-.53-.932-.712-.722-.457-2.156-1.247-3.337-1.265zm4.998 5.02c-.344.0-.586.043-.831.103v.04h.04c.163.325.447.55.648.834.163.325.305.649.467.974l.04-.04c.285-.203.427-.528.427-1.016-.123-.143-.142-.284-.244-.427-.121-.203-.385-.304-.547-.467z"/></svg>