<svg xmlns="http://www.w3.org/2000/svg" aria-label="Papertrail" role="img" viewBox="0 0 85.8 85.8"><g fill="#f99d1c"><path d="m40.9 40.75c.3-.1.5-.1.7-.2 5.5-1.6 10.8-3.7 16.2-5.9 5.2-2.2 10.3-4.8 14.9-8.5 4.6-3.8 8.3-8.7 10.4-14.7.3-.8.9-2.1.9-3-7.2 9.9-35.9 10.9-35.9 10.9l6.8-6.2c-27.2.1-46.2 11.6-54.9 17.8 11.1 1.2 21.2 5.9 29.1 13 3.9-1.2 7.9-2.1 11.8-3.2z"/><path d="m85.8 39.75s-26.4-2-53.9 6.8c3.6 3.8 6.7 8.2 9.1 12.9 14.4-7.9 34.5-18.2 44.8-19.7z"/><path d="m42.8 63.65c1.7 4.3 2.8 8.9 3.3 13.7l25.2-25.9z"/></g></svg>