<svg xmlns="http://www.w3.org/2000/svg" aria-label="Mapbox" role="img" viewBox="0 0 36.936749 40.011002"><g fill="#cfd8dc"><path d="m17.08575 8.288c-1.633-2.449-1.986-5.722-2.063-7.067-4.148.897-8.2690004 2.506-8.0310004 3.691.03.149.218.328.53.502l-.488.873c-.596-.334-.931-.719-1.022-1.179-.269-1.341 1.25-2.554 4.6420004-3.709 2.316-.789 4.652-1.26 4.751-1.279L16.00175.0v.611c0 .042.026 4.288 1.916 7.123z"/><path d="m18.75275 40.011h-.251c-8.192.0-17.3090004-2.573-18.38600036-6.879-.657-2.63 1.49199996-5.536 6.21399996-8.401l.52.854c-4.249 2.579-6.29599996 5.172-5.763 7.305.935 3.738 9.5750004 6.068 17.1530004 6.12.901-1.347 5.742-9.26 2.979-19.873l.967-.252c3.149 12.092-3.218 20.837-3.282 20.924z"/><path d="m3.9327496 36.317c-.539.0-.806-.059-.85-.07-.176-.043-.314-.178-.362-.352-.049-.174.001-.361.129-.488.072-.072 7.1970004-7.208 8.1590004-12.978l.986.164c-.827 4.964-5.7150004 10.623-7.6560004 12.707 1.939-.111 6.8350004-1.019 16.2340004-6.28-7.335-.804-8.495-6.676-8.507-6.739l.983-.181c.047.246 1.226 6.011 9.244 6.011.003.0.005.0.008.0v0c.227.0.424.152.482.37.06.218-.036.449-.231.563-11.235 6.509-16.6830004 7.272-18.6190004 7.273z"/><path d="m8.5257496 38.711c-.207.0-.395-.128-.468-.325-.079-.211-.007-.45.177-.582.034-.025 1.8130004-1.338 3.7060004-4.228-.728-.322-1.465-.698-2.1960004-1.137-.888-.533-1.559-1.105-2.06-1.691-2.57.678-4.942.946-7.02499996.769l.084-.996c1.87599996.159 4.00899996-.063 6.32099996-.64-1.573-2.688-.129-5.356-.109-5.392l.874.487c-.067.122-1.265 2.37.249 4.633 2.2010004-.632 4.5490004-1.567 6.9790004-2.782.559-1.835.996-3.922 1.225-6.276.016-.161.108-.304.248-.385.14-.081.311-.088.458-.021.032.015 3.264 1.491 5.604 2.454.17.07.288.228.307.411.02.183-.063.361-.216.465-2.289 1.56-4.563 2.913-6.778 4.042-.702 2.225-1.571 4.077-2.459 5.591 3.702 1.383 6.915 1.404 6.956 1.404.228.0.427.154.484.375.057.221-.042.452-.241.563-4.54 2.522-11.7670004 3.232-12.0720004 3.261-.016-.001-.032.0-.048.0zM12.91075 33.978c-1.04 1.614-2.062 2.773-2.826 3.53 1.998-.294 5.501-.938 8.408-2.139-1.392-.171-3.407-.551-5.582-1.391zM8.7687496 30.442c.393.392.883.775 1.4900004 1.14.736.442 1.483.817 2.22 1.135.754-1.264 1.501-2.781 2.142-4.568-2.021.962-3.983 1.73-5.8520004 2.293zM17.20375 21.34c-.205 1.768-.521 3.381-.913 4.85 1.66-.885 3.354-1.896 5.062-3.026-1.549-.656-3.252-1.419-4.149-1.824z"/><path d="m11.92575 7.611c-.117.0-.233-.042-.325-.12C9.9907496 6.113 8.0957496 3.309 8.0157496 3.19c-.129-.191-.109-.446.046-.616.154-.171.408-.211.608-.102.011.003.938.385 7.2170004 1.431.181.03.33.156.39.328.061.172.022.364-.1.5-1.758 1.953-3.979 2.813-4.073 2.848-.058.021-.119.032-.178.032zM9.6487496 3.757C10.27975 4.606 11.18875 5.753 12.02075 6.526c.511-.233 1.657-.818 2.744-1.798-2.583-.441-4.159-.755-5.1160004-.971z"/></g><g fill="#b71c1c"><path d="m15.84475 21.411c-.068.0-.137-.014-.201-.042-.199-.088-.319-.294-.296-.51.292-2.749-3.926-3.852-3.969-3.862-.174-.044-.312-.179-.359-.352-.047-.173.002-.359.129-.486.207-.207 5.139-5.098 11.327-7.784.173-.075.369-.047.515.07.145.118.212.307.174.489-1.186 5.744-6.71 12.044-6.944 12.309-.099.109-.237.168-.376.168zm-3.388-5.115c1.184.445 3.258 1.475 3.783 3.356 1.449-1.808 4.542-5.973 5.697-9.934-4.387 2.11-8.081 5.292-9.48 6.578z"/><path d="m7.0807496 25.371-.475-.88c1.883-1.015 4.0400004-2.883 5.8070004-5.054-1.504 1.03-2.365 1.735-2.392 1.758l-.6390004-.77c.039-.032 1.7640004-1.447 4.6310004-3.22.787-1.266 1.392-2.568 1.703-3.816.053-.212.099-.417.136-.615-1.925-.687-3.701-1.094-4.921-1.269-.185-.026-.339-.153-.401-.328-.062-.175-.021-.371.104-.507.085-.092 2.116-2.268 4.654-3.463.197-.093.433-.047.581.114.067.073 1.44 1.615 1.091 4.805 1.155.45 2.345.997 3.491 1.648 2.759-1.24 5.892-2.356 9.229-3.03.172-.034.363.028.481.168.117.14.149.333.083.503-1.3 3.332-4.786 6.891-4.934 7.041-.101.102-.239.153-.383.148-.143-.008-.275-.076-.365-.188-1.12-1.408-2.584-2.574-4.163-3.523-2.175 1.004-4.101 2.078-5.684 3.049-2.02 3.153-5.0690004 6.048-7.6340004 7.429zM21.49375 14.407c1.29.832 2.491 1.81 3.484 2.948.828-.898 2.815-3.168 3.942-5.422-2.65.61-5.158 1.493-7.426 2.474zm-4.693-1.274c-.033.163-.071.33-.113.5-.21.839-.544 1.701-.972 2.561 1.096-.626 2.309-1.272 3.618-1.898-.838-.444-1.693-.83-2.533-1.163zm-4.751-2.45c1.111.218 2.48.574 3.941 1.086.152-1.843-.346-2.972-.647-3.472-1.376.718-2.581 1.728-3.294 2.386z"/><path d="m12.05175 15.511c0 4.38-3.6500004 7.86-6.2800004 10.4-.44.43-1.93.5-1.93.5.37-.38.79-.78 1.24-1.21 2.5-2.42 5.9700004-5.73 5.9700004-9.69.0-4.69-1.8900004-6.54-3.3800004-8.02-.66-.67-1.22-1.31-1.56-2.09l.31-.13c.34.15.73.32 1.03.45.24.35.56.69.93 1.06 1.53 1.53 3.6700004 3.63 3.6700004 8.73z"/><path d="m36.93675 16.805s-.605.086-.775.106c-8.76.97-17.8 3.49-22.97 5.56-1.87.75-3.8100004 1.66-5.5800004 2.68-.01.01-.02.01-.04.02-1.04.6-3.57 1.84-5.62 2.93 3-3.19 8.6200004-5.65 10.8600004-6.55 5.07-2.03 13.78-4.48 22.35-5.53-1.01-1.18-3.48-3.68-8.34-5.54-2.84-1.1-7.16-1.72-10.97-2.27-6.0600004-.87-9.5100004-1.45-9.8400004-3.1-.07-.33-.02-.66.13-.98.33.54.8.92 1.11 1.14.15.1.26.16.3.18l.01.01c1.42.75 5.2500004 1.3 8.4400004 1.76 3.86.56 8.23 1.19 11.18 2.32 6.87 2.65 9.24 6.44 9.34 6.6.09.15.415.664.415.664z"/></g></svg>