<svg aria-label="VBA" role="img" viewBox="0 0 170.82 170.82" xmlns="http://www.w3.org/2000/svg"><path d="m100.89 106.46V78.376L137 95.572v30.38l-36.11-19.49"/><path d="m100.89 78.379 34.393-14.905 34.966 16.623-31.53 16.624-37.83-18.342"/><path d="m136.43 96.148.57 29.807 33.823-16.62-.575-29.23-33.82 16.05"/><g fill="#952781"><path d="m103.75 104.17V81.813l32.098 15.478v24.08z"/><path d="m106.62 78.952 28.09-12.04 29.805 13.76-26.94 13.756z"/><path d="m139.86 97.294v24.075l27.515-13.755v-24.65z"/></g><path d="m49.3 77.231V49.144l36.11 17.198v30.38L49.3 77.232"/><path d="m49.3 49.144 34.387-14.33 34.968 16.05L87.13 67.488 49.3 49.144"/><path d="m84.836 66.914.573 29.807 33.82-16.624-.58-29.232L84.83 66.914"/><g fill="#6483c0"><path d="m52.165 74.939V52.584l32.098 15.477v24.65L52.165 74.938"/><path d="m55.027 49.718 28.09-12.037 29.808 13.756-26.942 13.757-30.956-15.475"/><path d="m88.276 68.061v24.075l27.514-13.757V54.304z"/></g><path d="m0 104.75V76.663l35.54 17.195.573 30.385L0 104.75"/><path d="m0 76.659 34.392-14.903L69.36 78.379l-32.1 16.625-37.26-18.346"/><path d="m34.915 94.256 1.198 29.982 33.82-16.624-.574-29.235"/><g fill="#d87b30"><path d="m2.866 102.45V80.092l32.1 15.478v24.08z"/><path d="M5.16 77.231 33.82 65.194l29.808 13.76L36.685 92.71 5.16 77.23"/><path d="m38.405 95.574.575 24.078 27.514-13.76-.573-24.648-27.51 14.33"/></g><path d="m52.165 108.76V80.674L87.702 97.87l.574 30.95-36.11-20.06"/><path d="m52.165 80.672 34.39-14.33 34.968 16.048-32.1 16.624-37.258-18.342"/><path d="m87.182 98.417 1.0939 30.403 33.247-17.196V82.39l-34.619 15.65"/><g fill="#e0d400"><path d="m55.027 107.04V84.11L87.13 99.588v24.65l-32.104-17.197"/><path d="m57.322 81.817 28.66-12.037 29.808 13.757-27.514 13.184z"/><path d="m90.57 99.588.57 24.074 27.516-13.184-.573-24.648z"/></g></svg>