<svg xmlns="http://www.w3.org/2000/svg" aria-label="Visual Studio" role="img" viewBox="0 0 96 95.51"><defs><mask id="mask" x="0" y="0" width="96" height="95.51" maskUnits="userSpaceOnUse"><path fill="#fff" transform="translate(0 -0.25)" d="M68.89 95.6a6 6 0 003.93-.44L92.6 85.65A6 6 0 0096 80.24V15.76a6 6 0 00-3.4-5.41L72.82.84A6 6 0 0068.34.55 6 6 0 0066 2L34.12 37.26 15.5 22l-1.63-1.4a4 4 0 00-3.61-.83 2.55 2.55.0 00-.53.18L2.46 23A4 4 0 000 26.37c0 .1.0.2.0.3V69.33c0 .1.0.2.0.3A4 4 0 002.46 73l7.27 3a2.55 2.55.0 00.53.18 4 4 0 003.61-.83L15.5 74 34.12 58.74 66 94A6 6 0 0068.89 95.6zM72 27.68 47.21 48 72 68.32zM12 34.27 24.41 48 12 61.73z"/></mask><linearGradient id="linear-gradient" x1="48" y1="97.75" x2="48" y2="2.25" gradientTransform="matrix(1, 0, 0, -1, 0, 98)" gradientUnits="userSpaceOnUse"><stop offset="0" stop-color="#fff"/><stop offset="1" stop-color="#fff" stop-opacity="0"/></linearGradient></defs><g mask="url(#mask)" transform="translate(0 -0.25)"><path fill="#52218a" d="M13.87 75.4a4 4 0 01-4.14.65L2.46 73A4 4 0 010 69.33V26.67A4 4 0 012.46 23l7.27-3a4 4 0 014.14.65L15.5 22A2.21 2.21.0 0012 23.8V72.2A2.21 2.21.0 0015.5 74z"/><path fill="#6c33af" d="M2.46 73A4 4 0 010 69.33V69a2.31 2.31.0 004 1.55L66 2A6 6 0 0172.82.84L92.6 10.36A6 6 0 0196 15.77V16a3.79 3.79.0 00-6.19-2.93L15.5 74l-1.63 1.4a4 4 0 01-4.14.65z"/><path fill="#854cc7" d="M2.46 23A4 4 0 000 26.67V27a2.31 2.31.0 014-1.55L66 94a6 6 0 006.82 1.16L92.6 85.64A6 6 0 0096 80.23V80a3.79 3.79.0 01-6.19 2.93L15.5 22l-1.63-1.4A4 4 0 009.73 20z"/><path fill="#b179f1" d="M72.82 95.16A6 6 0 0166 94a3.52 3.52.0 006-2.49v-87A3.52 3.52.0 0066 2 6 6 0 0172.82.84L92.6 10.35A6 6 0 0196 15.76V80.24a6 6 0 01-3.4 5.41z"/><path fill="url(#linear-gradient)" fill-rule="evenodd" opacity=".25" d="M68.89 95.6a6 6 0 003.93-.44L92.6 85.65A6 6 0 0096 80.24V15.76a6 6 0 00-3.4-5.41L72.82.84A6 6 0 0068.34.55 6 6 0 0066 2L34.12 37.26 15.5 22l-1.63-1.4a4 4 0 00-3.61-.83 2.55 2.55.0 00-.53.18L2.46 23A4 4 0 000 26.37c0 .1.0.2.0.3V69.33c0 .1.0.2.0.3A4 4 0 002.46 73l7.27 3a2.55 2.55.0 00.53.18 4 4 0 003.61-.83L15.5 74 34.12 58.74 66 94A6 6 0 0068.89 95.6zM72 27.68 47.21 48 72 68.32zM12 34.27 24.41 48 12 61.73z"/></g></svg>