<svg xmlns="http://www.w3.org/2000/svg" aria-label="Webpack" role="img" viewBox="0 0 987.8623 1117.6628"><path fill="#fff" d="M493.93116.0 987.86233 279.3838V838.27901L493.93116 1117.6628.0 838.27901V279.3838z"/><path fill="#8ed6fb" d="M899.66944 819.00681 510.2679 1039.2975V867.76171L752.89403 734.25993zm26.67483-24.1223V334.26504L783.90831 416.5869V712.69033zM86.661308 819.00681 476.06285 1039.2975V867.76171L233.30909 734.25993zm-26.674837-24.1223V334.26504L202.42243 416.5869V712.69033zM76.706105 304.39943 476.06285 78.49293v165.7924L220.16311 385.06209l-2.04209 1.14868zm832.918535.0L510.2679 78.49293v165.7924l255.89973 140.64913 2.04209 1.14868z"/><path fill="#1c78c0" d="M476.06285 828.70671 236.62749 696.99174v-260.7497l239.43536 138.22414zm34.20505.0 239.43536-131.58734V436.24204L510.2679 574.46618zM493.16537 564.51098zM252.8366 406.12117 493.16537 274.0233 733.49415 406.12117 493.16537 544.85584z"/></svg>