<svg 
    xmlns="http://www.w3.org/2000/svg"
    aria-label="Download PDF" 
    role="img"
    viewBox="0 0 90.9 128.87" 
>
    <g
        fill="#F59F00"
        fill-rule="evenodd"
    >
        <path d="m63.85 111.33h-10.8v-14.86h-15.34v14.86h-11.15l18.64 17.54zm20.12-77.38h-18.79c-1.98 0-4.73-1.06-6.03-2.36s-2.09-3.65-2.09-5.61v-19.03h-49.66c-0.16 0-0.29 0.08-0.37 0.16-0.14 0.09-0.18 0.21-0.18 0.38v87.73c0 0.12 0.09 0.29 0.16 0.37 0.09 0.13 0.26 0.16 0.38 0.16h12.96c-1.03 2.16-1.79 4.49-2.23 6.91h-12.85c-1.46 0-2.76-0.58-3.73-1.55-0.96-0.96-1.54-2.26-1.54-3.73v-92.06c0-1.46 0.59-2.76 1.54-3.73 0.97-0.97 2.31-1.55 3.73-1.55h55.31c0.12-0.04 0.24-0.04 0.37-0.04 0.58 0 1.18 0.25 1.59 0.62h0.08c0.09 0.05 0.13 0.09 0.21 0.16l27.27 27.6c0.46 0.46 0.8 1.09 0.8 1.8 0 0.21-0.04 0.37-0.08 0.6v66.61c0 1.46-0.59 2.77-1.55 3.73-0.97 0.96-2.27 1.55-3.73 1.55h-13.97c-0.44-2.43-1.19-4.75-2.23-6.91h14.07c0.16 0 0.16-0.09 0.25-0.16 0.13-0.09 0.3-0.26 0.3-0.37 0-23.45 0.01-37.84 0.01-61.28zm-20.68-8.52v-17.31l19.49 19.74h-17.06c-0.67 0-1.26-0.29-1.72-0.71-0.42-0.42-0.71-1.05-0.71-1.72z"/>
        <path
            stroke="#F59F00"
            stroke-width="1px"
            d="m28.524 54.066c-1.9415-1.9415 0.15906-4.6094 5.8597-7.4424l3.5869-1.7825 1.3974-3.0574c0.76857-1.6816 1.9156-4.4254 2.549-6.0973l1.1517-3.0399-0.79363-2.2497c-0.97585-2.7662-1.3238-6.9231-0.70469-8.4179 0.83865-2.0247 3.5856-1.8169 4.6732 0.35339 0.84936 1.695 0.76252 4.7646-0.24429 8.6359l-0.82541 3.1738 0.72705 1.2342c0.39988 0.67883 1.5679 2.2907 2.5956 3.5818l1.9316 2.4027 2.4036-0.31365c7.6357-0.99638 10.251 0.69706 10.251 3.1251 0 3.0644-5.9956 3.3173-11.03-0.21889-1.1328-0.79566-1.9108-1.5861-1.9108-1.5861s-3.1541 0.64212-4.7071 1.0607c-1.603 0.43206-2.4027 0.70264-4.7508 1.4952 0 0-0.82386 1.1964-1.3607 2.0662-1.9973 3.2359-4.3294 5.9176-5.9949 6.8937-1.8647 1.0928-3.8196 1.1673-4.8039 0.18304zm3.0469-1.0885c1.0913-0.67449 3.3002-3.287 4.8293-5.7118l0.61908-0.98172-2.8188 1.4173c-4.3537 2.189-6.3454 4.2521-5.3097 5.5 0.58181 0.70103 1.2778 0.64291 2.6802-0.22381zm28.28-7.9379c1.0674-0.74767 0.91248-2.2543-0.29431-2.8618-0.93918-0.47276-1.6961-0.5699-4.1359-0.53388-1.4993 0.10223-3.9102 0.40438-4.3188 0.4963 0 0 1.3244 0.91535 1.9124 1.2518 0.78277 0.44708 2.685 1.277 4.0738 1.7021 1.3699 0.41932 2.1624 0.37511 2.7628-0.05451zm-11.371-4.7261c-0.64601-0.67909-1.7445-2.0965-2.4411-3.1497-0.91101-1.1948-1.3678-2.0377-1.3678-2.0377s-0.66587 2.1417-1.2122 3.4306l-1.7043 4.2127-0.49414 0.95556s2.627-0.86135 3.9636-1.2105c1.4157-0.36977 4.2888-0.93475 4.2888-0.93475zm-3.6644-14.695c0.16478-1.3828 0.23471-2.7635-0.20957-3.4598-1.2323-1.3472-2.7197-0.22374-2.4678 2.9791 0.0848 1.0774 0.35244 2.9193 0.71028 4.0545l0.65064 2.064 0.45793-1.5546c0.25186-0.85501 0.63817-2.6925 0.85847-4.0832z"
        />
        <rect
            x="9.494"
            y="58.51"
            width="71.912"
            height="34.549"
        />
    </g>
    <path
        fill="#fff"
        d="m19.197 66.688h9.5209c2.0708 0 3.6239 0.4934 4.6512 1.4722 1.0273 0.9869 1.545 2.3782 1.545 4.1902 0 1.8605-0.5581 3.3165-1.6906 4.3681-1.1244 1.0516-2.8393 1.5693-5.1528 1.5693h-3.1305v6.8434h-5.7514v-18.443zm5.7514 7.8626h1.3994c1.1082 0 1.8848-0.186 2.3216-0.5743 0.4449-0.3802 0.6714-0.8656 0.6714-1.4641 0-0.5825-0.1941-1.0759-0.5824-1.4722-0.3802-0.4045-1.1163-0.6067-2.1841-0.6067h-1.634v4.1174zm12.789-7.8626h8.5017c1.6744 0 3.0334 0.2265 4.0607 0.6795s1.8767 1.1001 2.5562 1.9495c0.6714 0.8493 1.1567 1.8362 1.4641 2.9606 0.2993 1.1244 0.453 2.3135 0.453 3.5754 0 1.9737-0.2265 3.5026-0.6795 4.5865-0.4449 1.0839-1.0759 1.998-1.8767 2.7341s-1.6583 1.2215-2.5723 1.4641c-1.2538 0.3316-2.3944 0.5015-3.4136 0.5015h-8.4936zm5.719 4.1821v10.071h1.3994c1.1972 0 2.0465-0.1294 2.5562-0.3964 0.5015-0.2588 0.8979-0.728 1.1891-1.3832 0.2831-0.6552 0.4287-1.723 0.4287-3.2033 0-1.9576-0.3155-3.2923-0.9545-4.0122s-1.7068-1.0839-3.1871-1.0839h-1.4318zm14.099-4.1821h14.156v3.9637h-8.4046v3.2195h7.175v3.721h-7.175v7.539h-5.7514z"
    />
</svg>
