<svg xmlns="http://www.w3.org/2000/svg" width="16" height="16" fill="#F59F00" viewBox="0 0 16 16">
  <path d="m 10,1 c 0.552285,0 1,0.4477153 1,1 v 12 c 0,0.552285 -0.447715,1 -1,1 H 6 C 5.4477153,15 5,14.552285 5,14 V 2 C 5,1.4477153 5.4477153,1 6,1 Z M 6,0 C 4.8954305,0 4,0.8954305 4,2 v 12 c 0,1.104569 0.8954305,2 2,2 h 4 c 1.104569,0 2,-0.895431 2,-2 V 2 C 12,0.8954305 11.104569,0 10,0 Z" />
  <path d="m 8,14 c 1.3333328,0 1.3333328,-2 0,-2 -1.3333328,0 -1.3333328,2 0,2 z M 1.599,4.058 C 1.8431651,4.1871889 1.9363061,4.4898969 1.807,4.734 1.2752447,5.7403987 0.9981671,6.8617563 1,8 1,9.18 1.292,10.292 1.807,11.266 2.1189999,11.855333 1.2349999,12.323333 0.923,11.734 0.31502364,10.583383 -0.00187583,9.3013651 0,8 0,6.653 0.334,5.381 0.923,4.266 1.0521889,4.0218349 1.3548969,3.9286939 1.599,4.058 Z m 12.802,0 C 14.645103,3.9286939 14.947811,4.0218349 15.077,4.266 15.685015,5.4166023 16.001916,6.69863 16,8 c 0.0019,1.30137 -0.314985,2.583398 -0.923,3.734 -0.312,0.589333 -1.196,0.121333 -0.884,-0.468 C 14.724755,10.259601 15.001833,9.1382437 15,8 15,6.82 14.708,5.708 14.193,4.734 14.063694,4.4898969 14.156835,4.1871889 14.401,4.058 Z M 3.057,5.534 C 3.3144807,5.634395 3.4416833,5.9246319 3.341,6.182 3.1149376,6.7614272 2.9992811,7.3780357 3,8 3,8.642 3.12,9.255 3.34,9.818 3.6287219,10.457439 2.6320429,10.847537 2.41,10.182 2.1384663,9.4865963 1.9994083,8.7465363 2,8 2,7.231 2.145,6.495 2.41,5.818 2.5103981,5.5610634 2.7999161,5.4339797 3.057,5.534 Z m 9.886,0 c 0.257368,-0.1006833 0.547605,0.026519 0.648,0.284 C 13.855,6.495 14,7.231 14,8 14,8.769 13.855,9.505 13.59,10.182 13.329314,10.759347 12.459518,10.418911 12.66,9.818 12.88,9.255 13,8.642 13,8 13,7.358 12.88,6.745 12.66,6.182 12.55921,5.9249115 12.685913,5.6347935 12.943,5.534 Z" />
</svg>
