<?xml version="1.0" encoding="UTF-8" standalone="no"?>
<svg
   viewBox="0 0 271.53116 124.9"
   width="271.53116"
   height="124.9"
   version="1.1"
   id="svg20"
   sodipodi:docname="cybersmith-logo-no-background.svg"
   inkscape:version="1.2.2 (732a01da63, 2022-12-09)"
   xmlns:inkscape="http://www.inkscape.org/namespaces/inkscape"
   xmlns:sodipodi="http://sodipodi.sourceforge.net/DTD/sodipodi-0.dtd"
   xmlns="http://www.w3.org/2000/svg"
   xmlns:svg="http://www.w3.org/2000/svg">
  <defs
     id="defs24" />
  <sodipodi:namedview
     id="namedview22"
     pagecolor="#ffffff"
     bordercolor="#666666"
     borderopacity="1.0"
     inkscape:showpageshadow="2"
     inkscape:pageopacity="0.0"
     inkscape:pagecheckerboard="0"
     inkscape:deskcolor="#d1d1d1"
     showgrid="false"
     inkscape:zoom="4.031218"
     inkscape:cx="46.511997"
     inkscape:cy="40.930557"
     inkscape:window-width="4773"
     inkscape:window-height="1412"
     inkscape:window-x="339"
     inkscape:window-y="-8"
     inkscape:window-maximized="1"
     inkscape:current-layer="logo" />
  <g
     id="logo"
     fill="none"
     stroke-width="5"
     transform="translate(-23.968837,-28.7)">
    <g
       id="circuit-path"
       stroke="#ffffff">
      <path
         d="M 204.8,82.1 H 99 L 46.6,41.2"
         id="path2" />
      <path
         d="m 233.2,50.6 h -72 l -32.8,31.5 32.5,25.4 h 61.3 l 25.6,19.4"
         id="path4" />
      <line
         x1="144.2"
         y1="119.3"
         x2="160.89999"
         y2="107.5"
         id="line6" />
    </g>
    <g
       id="circuit-end"
       stroke="#f59f00">
      <circle
         cx="241.3"
         cy="50.599998"
         r="9.1999998"
         id="circle9" />
      <circle
         cx="254"
         cy="131.5"
         r="9.1999998"
         id="circle11" />
      <circle
         cx="212.8"
         cy="81.900002"
         r="9.1999998"
         id="circle13" />
      <circle
         cx="137.89999"
         cy="123.8"
         r="9.1999998"
         id="circle15" />
    </g>
    <path
       id="anvil"
       stroke="#f59f00"
       d="m 27.5,41.2 h 65.4 l 8.5,-9.7 c 0.2,-0.2 0.5,-0.3 0.8,-0.3 H 292 c 0.5,0 1,0.4 1,1 v 13.3 c 0,0.4 -0.3,0.8 -0.6,0.9 -39.1,15.3 -39.1,74.2 0,89.5 0.4,0.1 0.6,0.5 0.6,0.9 v 14.3 h -55 c -25,-35 -70,-35 -90,0 H 93 v -14 c 0,-0.5 0.4,-1 1,-1 27.5,-0.8 28.6,-35.9 3.5,-39.7 -3.9,-0.6 -7.8,-1.7 -11.4,-3.3 L 26.8,42.9 c -0.7,-0.6 -0.3,-1.7 0.7,-1.7 z"
       sodipodi:nodetypes="sccssssccsccccsccccs" />
  </g>
</svg>
